# Blender v2.83.1 OBJ File: 'dice_smooth_uv.blend'
# www.blender.org
mtllib dice_smooth.mtl
o dice
v -0.500000 0.809017 0.000000
v 0.000000 0.500000 0.809017
v -0.809017 -0.000000 0.500000
v -0.809017 0.000000 -0.500000
v 0.000000 0.500000 -0.809017
v 0.500000 0.809017 0.000000
v 0.000000 -0.500000 0.809017
v 0.500000 -0.809017 -0.000000
v -0.500000 -0.809017 -0.000000
v 0.000000 -0.500000 -0.809017
v 0.809017 0.000000 -0.500000
v 0.809017 -0.000000 0.500000
vt 0.734365 0.878799
vt 0.529840 0.968730
vt 0.500000 0.733287
vt 0.734365 0.587775
vt 0.591385 0.379033
vt 0.436573 0.209485
vt 0.627931 0.090675
vt 0.841876 0.268890
vt 0.782743 0.497843
vt 0.529840 0.497843
vt 0.295475 0.968730
vt 0.265635 0.733287
vt 0.500000 0.878799
vt 0.295475 0.497843
vt 0.500000 0.587775
vt 0.841876 0.031270
vt 0.968730 0.587775
vt 0.968730 0.878799
vt 0.734365 0.733287
vt 0.436573 0.268890
vt 0.186082 0.379033
vt 0.222628 0.090675
vt 0.436573 0.031270
vt 0.265635 0.587775
vt 0.265635 0.878799
vt 0.031270 0.733287
vt 0.061110 0.497843
vt 0.377440 0.497843
vt 0.031270 0.209485
vt 0.061110 0.968730
vt 0.764205 0.497843
vt 0.764205 0.968730
vn -0.5257 0.8507 0.0000
vn -0.8507 -0.0000 0.5257
vn 0.0000 0.5257 0.8507
vn 0.5257 0.8507 0.0000
vn -0.0000 0.5257 -0.8507
vn -0.8507 0.0000 -0.5257
vn 0.8507 -0.0000 0.5257
vn 0.0000 -0.5257 0.8507
vn -0.5257 -0.8507 -0.0000
vn 0.0000 -0.5257 -0.8507
vn 0.8507 0.0000 -0.5257
vn 0.5257 -0.8507 -0.0000
usemtl Default_OBJ
s 1
f 1/1/1 3/2/2 2/3/3
f 1/1/1 2/3/3 6/4/4
f 1/5/1 6/6/4 5/7/5
f 1/5/1 5/7/5 4/8/6
f 1/5/1 4/8/6 3/9/2
f 6/4/4 2/3/3 12/10/7
f 2/11/3 3/12/2 7/13/8
f 3/12/2 4/14/6 9/15/9
f 4/8/6 5/7/5 10/16/10
f 5/17/5 6/18/4 11/19/11
f 8/20/12 12/21/7 7/22/8
f 8/20/12 7/22/8 9/23/9
f 8/24/12 9/25/9 10/26/10
f 8/24/12 10/26/10 11/27/11
f 8/20/12 11/28/11 12/21/7
f 7/22/8 12/21/7 2/29/3
f 9/15/9 7/13/8 3/12/2
f 10/26/10 9/25/9 4/30/6
f 11/19/11 10/31/10 5/17/5
f 12/32/7 11/19/11 6/18/4
