# Blender v2.91.0 OBJ File: 'temple_prototype_export.blend'
# www.blender.org
mtllib heightmap_temple_prototype_export.mtl
o Cube.001_Cube.002
v 5.000000 2.000000 -4.000000
v 5.000000 2.000000 4.000000
v 2.000000 0.000000 7.000000
v 1.000000 2.000000 5.000000
v 1.000000 2.000000 4.000000
v 5.000000 2.000000 3.000000
v 3.750000 2.000000 4.000000
v 3.750000 2.000000 3.000000
v 3.750000 2.000000 -3.000000
v 5.000000 2.000000 -3.000000
v 3.750000 2.000000 -4.000000
v 1.037520 2.000000 3.000000
v 1.037520 2.000000 2.347480
v 1.037520 2.000000 2.347480
v 0.518462 1.895236 0.620216
v 0.746687 1.824570 0.620216
v 3.407961 1.824570 2.189049
v 1.239169 1.824570 2.189049
v 3.586315 1.824569 -2.794301
v 1.037520 2.000000 2.347480
v 0.518462 1.824570 0.439038
v 0.518462 1.824569 0.620216
v 1.000000 2.000000 4.000000
v 1.000000 2.000000 4.000000
v -5.000000 2.000000 -4.000000
v -5.000000 2.000000 4.000000
v 0.000000 2.000000 4.000000
v -2.000000 0.000000 7.000000
v -1.000000 2.000000 5.000000
v -1.000000 2.000000 4.000000
v 0.000000 0.000000 7.000000
v 0.000000 2.000000 5.000000
v -5.000000 2.000000 3.000000
v -3.750000 2.000000 4.000000
v -3.750000 2.000000 3.000000
v -3.750000 2.000000 -3.000000
v -5.000000 2.000000 -3.000000
v -3.750000 2.000000 -4.000000
v 0.000000 2.000000 3.000000
v -1.037520 2.000000 3.000000
v -1.037520 2.000000 2.347480
v -1.037520 2.000000 2.347480
v -0.518462 1.824570 0.439038
v -0.518462 1.895236 0.620216
v -0.746687 1.824570 0.620216
v -3.407961 1.824570 2.189049
v -1.239169 1.824570 2.189049
v 0.000000 1.824569 -2.794301
v -3.586315 1.824569 -2.794301
v 0.000000 2.001788 2.347476
v -1.037520 2.000000 2.347480
v 0.518462 1.824570 0.439038
v -0.518462 1.824570 0.439038
v -0.518462 1.824569 0.620216
v -1.000000 2.000000 4.000000
v -1.000000 2.000000 4.000000
vt 0.750000 0.500000
vt 0.625000 0.750000
vt 0.625000 0.500000
vt 0.375000 0.875000
vt 0.375000 0.750000
vt 0.656250 0.562500
vt 0.625000 0.703125
vt 0.625000 0.546875
vt 0.656250 0.750000
vt 0.656250 0.687500
vt 0.703125 0.687500
vt 0.656250 0.500000
vt 0.625000 0.500000
vt 0.625000 0.750000
vt 0.000000 0.000000
vt 0.000000 0.000000
vt 0.000000 0.000000
vt 0.703125 0.687500
vt 0.000000 0.000000
vt 0.000000 0.000000
vt 0.750000 0.750000
vt 0.625000 0.875000
vt 0.750000 0.687500
vt 0.750000 0.750000
vt 0.000000 0.000000
vt 0.656250 0.500000
vt 0.656250 0.562500
vt 0.000000 0.000000
vt 0.000000 0.000000
vt 0.000000 0.000000
vt 0.000000 0.000000
vt 0.000000 0.000000
vt 0.703125 0.687500
vt 0.000000 0.000000
vt 0.625000 0.500000
vt 0.625000 0.750000
vt 0.375000 0.750000
vt 0.625000 0.546875
vt 0.625000 0.703125
vt 0.656250 0.750000
vt 0.703125 0.687500
vt 0.656250 0.687500
vt 0.625000 0.500000
vt 0.625000 0.750000
vt 0.703125 0.687500
vt 0.000000 0.000000
vt 0.000000 0.000000
vt 0.000000 0.000000
vt 0.000000 0.000000
vt 0.000000 0.000000
vt 0.000000 0.000000
vt 0.000000 0.000000
vt 0.703125 0.687500
vn 0.0000 1.0000 0.0000
vn 0.0000 0.7071 0.7071
vn 0.0000 0.9316 -0.3634
vn -0.0017 -0.9981 0.0611
vn 0.0000 -1.0000 -0.0000
vn 0.0000 -0.9981 0.0616
vn 0.0000 1.0000 0.0027
vn -0.0017 -1.0000 0.0000
vn 0.0017 -0.9981 0.0611
vn 0.0017 -1.0000 0.0000
usemtl Material.002
s off
f 27/1/1 4/2/1 5/3/1
f 4/2/2 31/4/2 3/5/2
f 9/6/1 6/7/1 10/8/1
f 7/9/1 8/10/1 12/11/1
f 11/12/1 10/8/1 1/13/1
f 8/10/1 2/14/1 6/7/1
f 53/15/3 15/16/3 21/17/3
f 16/18/1 17/19/1 19/20/1
f 27/1/1 32/21/1 4/2/1
f 4/2/2 32/22/2 31/4/2
f 9/6/1 8/10/1 6/7/1
f 12/11/1 39/23/1 27/24/1
f 12/11/1 27/24/1 24/25/1
f 38/26/1 36/27/1 9/6/1
f 11/12/1 9/6/1 10/8/1
f 8/10/1 7/9/1 2/14/1
f 50/28/4 15/16/4 20/29/4
f 19/20/1 48/30/1 16/18/1
f 22/31/5 21/17/5 16/32/5
f 16/18/1 18/33/1 17/19/1
f 15/16/6 50/28/6 44/34/6
f 16/32/1 48/30/1 21/17/1
f 12/11/1 24/25/1 7/9/1
f 12/11/7 50/28/7 39/23/7
f 20/29/8 12/11/8 50/28/8
f 27/1/1 30/35/1 29/36/1
f 29/36/2 28/37/2 31/4/2
f 36/27/1 37/38/1 33/39/1
f 34/40/1 40/41/1 35/42/1
f 38/26/1 25/43/1 37/38/1
f 35/42/1 33/39/1 26/44/1
f 53/15/3 44/34/3 15/16/3
f 45/45/1 49/46/1 46/47/1
f 27/1/1 29/36/1 32/21/1
f 29/36/2 31/4/2 32/22/2
f 36/27/1 33/39/1 35/42/1
f 40/41/1 27/24/1 39/23/1
f 40/41/1 56/48/1 27/24/1
f 9/6/1 11/12/1 38/49/1
f 38/26/1 37/38/1 36/27/1
f 35/42/1 26/44/1 34/40/1
f 50/28/9 51/50/9 44/34/9
f 49/46/1 45/45/1 48/30/1
f 54/51/5 45/52/5 53/15/5
f 45/45/1 46/47/1 47/53/1
f 21/17/1 48/30/1 53/15/1
f 45/52/1 53/15/1 48/30/1
f 40/41/1 34/40/1 56/48/1
f 40/41/7 39/23/7 50/28/7
f 51/50/10 50/28/10 40/41/10
l 13 12
l 15 14
l 7 23
l 41 40
l 44 42
l 34 55
