# Blender v2.91.0 OBJ File: 'prototype_crystals.blend'
# www.blender.org
mtllib prototype_shards.mtl
o Cube
v 0.029200 0.138841 -0.002121
v 0.009829 -0.002980 0.000070
v 0.029285 0.150002 0.038953
v 0.008590 -0.002980 0.017951
v -0.014083 0.165734 0.015266
v -0.007825 -0.002980 0.001643
v -0.011234 0.177475 0.043463
v -0.008616 -0.002980 0.021855
v 0.014095 0.230473 0.029932
v -0.018677 0.097396 -0.062698
v 0.003970 -0.002980 -0.022129
v -0.007841 0.092707 -0.031182
v 0.007182 -0.002980 -0.009533
v -0.045190 0.095939 -0.039382
v -0.008147 -0.002980 -0.015616
v -0.033236 0.118768 -0.029315
v -0.004085 -0.002980 -0.001566
v -0.037500 0.147757 -0.059423
v 0.050074 0.045046 -0.017927
v 0.013792 -0.002980 -0.007406
v 0.044699 0.041299 -0.001401
v 0.020319 -0.002980 -0.000050
v 0.033705 0.053220 -0.013083
v 0.009930 -0.002980 -0.007397
v 0.041941 0.070524 -0.003342
v 0.012777 -0.002980 0.000840
v 0.054763 0.079729 -0.008997
v 0.000115 -0.018486 0.005778
v -0.000271 -0.018486 -0.006374
v 0.007489 -0.018486 -0.001857
vt 0.355196 0.400206
vt 0.462378 0.033919
vt 0.414287 0.022824
vt 0.151340 0.680041
vt 0.022824 0.288480
vt 0.101478 0.683125
vt 0.196988 0.445044
vt 0.309548 0.025085
vt 0.258931 0.022824
vt 0.387959 0.680134
vt 0.462378 0.455593
vt 0.151340 0.203678
vt 0.074518 0.022824
vt 0.508026 0.227261
vt 0.584828 0.187225
vt 0.538779 0.022824
vt 0.309548 0.529793
vt 0.223082 0.679473
vt 0.584828 0.671195
vt 0.528058 0.674449
vt 0.845804 0.472193
vt 0.765402 0.215703
vt 0.811894 0.487789
vt 0.719754 0.444279
vt 0.630476 0.177108
vt 0.682720 0.455290
vt 0.662140 0.772120
vt 0.719754 0.506442
vt 0.683302 0.500938
vt 0.785441 0.022824
vt 0.845804 0.162584
vt 0.719754 0.155256
vt 0.641072 0.022824
vt 0.947462 0.285131
vt 0.891453 0.340995
vt 0.947462 0.445557
vt 0.719754 0.859230
vt 0.695538 0.945576
vt 0.903504 0.022824
vt 0.943394 0.035317
vt 0.239413 0.927544
vt 0.196988 0.828308
vt 0.214830 0.931461
vt 0.818883 0.626944
vt 0.777459 0.785626
vt 0.786120 0.791843
vt 0.864532 0.676528
vt 0.902914 0.533438
vt 0.882865 0.541616
vt 0.205827 0.725121
vt 0.239413 0.819913
vt 0.818883 0.533437
vt 0.765402 0.617216
vt 0.508026 0.810346
vt 0.539018 0.757000
vt 0.529035 0.720097
vt 0.902914 0.751790
vt 0.876728 0.791869
vt 0.539018 0.975669
vt 0.514305 0.977176
vt 0.539018 0.975669
vt 0.882865 0.541616
vt 0.414287 0.022824
vt 0.719754 0.444279
vt 0.903504 0.022824
vt 0.151340 0.680041
vt 0.683302 0.500938
vt 0.239413 0.927544
vt 0.584828 0.671195
vt 0.258931 0.022824
vt 0.786120 0.791843
vt 0.845804 0.472193
vn 0.6042 0.0851 -0.7923
vn 0.6849 -0.4136 0.5998
vn 0.6587 -0.3172 -0.6822
vn -0.7124 -0.2370 -0.6605
vn 0.7468 0.0048 0.6650
vn -0.5911 -0.4205 0.6883
vn 0.1241 0.9911 0.0477
vn -0.8069 0.2093 -0.5523
vn -0.6410 0.2353 0.7305
vn 0.4627 -0.4350 -0.7725
vn 0.8712 0.3368 0.3571
vn 0.9426 -0.0742 0.3254
vn -0.8047 -0.4930 -0.3305
vn 0.2954 -0.0387 -0.9546
vn -0.2626 -0.1319 0.9558
vn -0.1896 0.9086 -0.3721
vn -0.9880 -0.1536 -0.0135
vn -0.1726 0.5439 0.8212
vn 0.3432 -0.3473 -0.8727
vn 0.6132 -0.2593 0.7461
vn 0.7736 -0.5002 0.3891
vn -0.7227 0.3494 -0.5962
vn -0.7941 0.0779 -0.6027
vn -0.5079 0.1272 0.8520
vn 0.4823 0.8743 -0.0543
vn 0.6682 -0.2226 -0.7099
vn -0.4716 0.6833 0.5573
vn -0.3898 -0.9176 0.0779
vn -0.0197 -0.9801 -0.1974
vn 0.0170 -0.9595 0.2810
usemtl Material
s 1
f 1/1/1 4/2/2 2/3/3
f 6/4/4 1/5/1 2/6/3
f 3/7/5 8/8/6 4/9/2
f 9/10/7 3/11/5 1/1/1
f 5/12/8 9/13/7 1/5/1
f 5/14/8 7/15/9 9/16/7
f 7/17/9 3/7/5 9/18/7
f 8/19/6 5/14/8 6/20/4
f 11/21/10 12/22/11 13/23/12
f 15/24/13 10/25/14 11/26/10
f 12/27/11 17/28/15 13/29/12
f 18/30/16 12/22/11 10/31/14
f 14/32/17 18/33/16 10/25/14
f 14/34/17 16/35/18 18/36/16
f 16/37/18 12/27/11 18/38/16
f 17/39/15 14/34/17 15/40/13
f 20/41/19 21/42/20 22/43/21
f 23/44/22 20/45/19 24/46/23
f 21/47/20 26/48/24 22/49/21
f 27/50/25 21/42/20 19/51/26
f 23/44/22 27/52/25 19/53/26
f 23/54/22 25/55/27 27/56/25
f 25/57/27 21/47/20 27/58/25
f 26/59/24 23/54/22 24/60/23
f 1/1/1 3/11/5 4/2/2
f 6/4/4 5/12/8 1/5/1
f 3/7/5 7/17/9 8/8/6
f 8/19/6 7/15/9 5/14/8
f 11/21/10 10/31/14 12/22/11
f 15/24/13 14/32/17 10/25/14
f 12/27/11 16/37/18 17/28/15
f 17/39/15 16/35/18 14/34/17
f 20/41/19 19/51/26 21/42/20
f 23/44/22 19/53/26 20/45/19
f 21/47/20 25/57/27 26/48/24
f 26/59/24 25/55/27 23/54/22
f 26/59/24 24/60/23 30/61/28
f 22/49/21 26/48/24 30/62/28
f 2/3/3 4/2/2 28/63/29
f 15/24/13 11/26/10 29/64/30
f 17/39/15 15/40/13 29/65/30
f 6/4/4 2/6/3 28/66/29
f 13/29/12 17/28/15 29/67/30
f 20/41/19 22/43/21 30/68/28
f 8/19/6 6/20/4 28/69/29
f 4/9/2 8/8/6 28/70/29
f 24/46/23 20/45/19 30/71/28
f 11/21/10 13/23/12 29/72/30
