# Blender v2.83.1 OBJ File: 'super_exclusive_triangulate.blend'
# www.blender.org
mtllib super_exclusive.mtl
o Cube
v 0.366767 0.733671 0.366904
v 0.366767 0.000000 0.366904
v -0.366904 0.733671 0.366767
v -0.366904 0.000000 0.366767
v 0.366904 0.733671 -0.366767
v 0.366904 0.000000 -0.366767
v -0.366767 0.733671 -0.366904
v -0.366767 0.000000 -0.366904
v -0.289065 0.748528 0.288957
v -0.288957 0.748528 -0.289065
v 0.288957 0.748528 0.289065
v 0.289065 0.748528 -0.288957
v -0.289011 0.733671 -0.000054
v -0.000054 0.733671 0.289011
v 0.000054 0.733671 -0.289011
v 0.289011 0.733671 0.000054
v 0.322740 0.044164 -0.366775
v -0.288984 0.748528 -0.144559
v -0.144559 0.748528 0.288984
v 0.144559 0.748528 -0.288984
v 0.288984 0.748528 0.144559
v -0.289038 0.748528 0.144452
v 0.144452 0.748528 0.289038
v -0.144452 0.748528 -0.289038
v 0.289038 0.748528 -0.144452
v -0.144505 0.733671 -0.000027
v 0.144505 0.733671 0.000027
v -0.000027 0.733671 0.144505
v 0.000027 0.733671 -0.144505
v 0.144532 0.748528 -0.144478
v 0.144478 0.748528 0.144532
v -0.144532 0.748528 0.144478
v -0.144478 0.748528 -0.144532
v 0.118277 0.799582 0.000022
v 0.000000 0.799582 0.000000
v 0.000022 0.799582 -0.118277
v -0.118277 0.799582 -0.000022
v -0.000022 0.799582 0.118277
v 0.118299 0.799582 -0.118255
v 0.118255 0.799582 0.118299
v -0.118299 0.799582 0.118255
v -0.118255 0.799582 -0.118299
v -0.322603 0.044164 -0.366896
v -0.322603 0.689507 -0.366896
v 0.322740 0.689507 -0.366775
v 0.322737 0.044164 -0.354218
v -0.322605 0.044164 -0.354339
v -0.322605 0.689507 -0.354339
v 0.322737 0.689507 -0.354218
v 0.366774 0.035794 0.331110
v 0.366897 0.035794 -0.330973
v 0.366774 0.697878 0.331110
v 0.366897 0.697878 -0.330973
v 0.349118 0.035794 0.331107
v 0.349241 0.035794 -0.330977
v 0.349118 0.697878 0.331107
v 0.349241 0.697878 -0.330977
v 0.329477 0.696381 0.366897
v 0.329477 0.037290 0.366897
v -0.329614 0.696381 0.366774
v -0.329614 0.037290 0.366774
v 0.329481 0.696381 0.344890
v 0.329481 0.037290 0.344890
v -0.329610 0.696381 0.344767
v -0.329610 0.037290 0.344767
v -0.366777 0.053096 -0.313808
v -0.366777 0.680575 -0.313808
v -0.366894 0.680575 0.313671
v -0.366894 0.053096 0.313671
v -0.350249 0.053096 -0.313805
v -0.350249 0.680575 -0.313805
v -0.350366 0.680575 0.313674
v -0.350366 0.053096 0.313674
vt 0.033921 0.249007
vt 0.094888 0.228171
vt 0.134515 0.228171
vt 0.033657 0.569192
vt 0.219508 0.554976
vt 0.234008 0.569192
vt 0.888517 0.569192
vt 0.876456 0.384584
vt 0.888517 0.372760
vt 0.561945 0.249007
vt 0.551762 0.062559
vt 0.561945 0.052575
vt 0.688166 0.249007
vt 0.878742 0.239424
vt 0.888517 0.249007
vt 0.055262 0.189481
vt 0.094888 0.189481
vt 0.235109 0.052575
vt 0.174141 0.073412
vt 0.134515 0.073412
vt 0.235109 0.249007
vt 0.213768 0.189481
vt 0.213768 0.150791
vt 0.033921 0.052575
vt 0.055262 0.112101
vt 0.055262 0.150791
vt 0.094888 0.150791
vt 0.094888 0.112101
vt 0.263678 0.694132
vt 0.282332 0.662465
vt 0.282332 0.694132
vt 0.174141 0.228171
vt 0.134515 0.189481
vt 0.174141 0.189481
vt 0.305818 0.373948
vt 0.324472 0.342280
vt 0.324472 0.373948
vt 0.174141 0.150791
vt 0.213768 0.228171
vt 0.174141 0.112101
vt 0.213768 0.112101
vt 0.213768 0.073412
vt 0.055262 0.073412
vt 0.094888 0.073412
vt 0.134515 0.112101
vt 0.305818 0.500076
vt 0.324472 0.468409
vt 0.324472 0.500076
vt 0.305818 0.626204
vt 0.324472 0.594537
vt 0.324472 0.626204
vt 0.383216 0.970748
vt 0.415650 0.939081
vt 0.415650 0.970748
vt 0.350782 0.970748
vt 0.383216 0.939081
vt 0.415650 0.907413
vt 0.350782 0.939081
vt 0.383216 0.907413
vt 0.324472 0.531744
vt 0.309875 0.538766
vt 0.324472 0.657872
vt 0.309875 0.664894
vt 0.324472 0.405615
vt 0.309875 0.412637
vt 0.282332 0.725800
vt 0.267735 0.732822
vt 0.960604 0.045126
vt 0.964048 0.217909
vt 0.960604 0.217909
vt 0.688166 0.372760
vt 0.700226 0.557367
vt 0.688166 0.569192
vt 0.700226 0.384584
vt 0.876457 0.557367
vt 0.026059 0.858278
vt 0.202289 0.685495
vt 0.202289 0.858278
vt 0.966018 0.685268
vt 0.969462 0.857333
vt 0.966018 0.857333
vt 0.969156 0.504704
vt 0.965713 0.332639
vt 0.969156 0.332639
vt 0.960100 0.332866
vt 0.963544 0.505649
vt 0.960100 0.505649
vt 0.948129 0.864172
vt 0.943287 0.686907
vt 0.948128 0.686907
vt 0.878742 0.062158
vt 0.888517 0.052575
vt 0.688166 0.052575
vt 0.697940 0.239424
vt 0.697941 0.062158
vt 0.387301 0.543988
vt 0.568103 0.366722
vt 0.568103 0.543988
vt 0.935395 0.686907
vt 0.940237 0.864172
vt 0.935395 0.864172
vt 0.956020 0.863202
vt 0.951179 0.686674
vt 0.956020 0.686674
vt 0.957994 0.222833
vt 0.953153 0.046305
vt 0.957994 0.046305
vt 0.296144 0.863118
vt 0.290109 0.686654
vt 0.296144 0.686654
vt 0.361594 0.052575
vt 0.371777 0.239023
vt 0.361594 0.249007
vt 0.371777 0.062559
vt 0.551762 0.239023
vt 0.387043 0.831877
vt 0.567028 0.655412
vt 0.567028 0.831877
vt 0.916097 0.686423
vt 0.922132 0.862153
vt 0.916097 0.862153
vt 0.912295 0.863118
vt 0.906260 0.686654
vt 0.912295 0.686654
vt 0.931969 0.862153
vt 0.925934 0.686423
vt 0.931969 0.686423
vt 0.301369 0.741969
vt 0.305902 0.909270
vt 0.301369 0.909270
vt 0.033657 0.372760
vt 0.048156 0.554976
vt 0.219508 0.386976
vt 0.234008 0.372760
vt 0.048156 0.386976
vt 0.679031 0.851989
vt 0.850383 0.683988
vt 0.850383 0.851988
vt 0.957588 0.499360
vt 0.953055 0.331359
vt 0.957588 0.331359
vt 0.308757 0.741969
vt 0.313290 0.909270
vt 0.308757 0.909270
vt 0.958973 0.683988
vt 0.963506 0.851988
vt 0.958973 0.851988
vt 0.055262 0.228171
vt 0.267735 0.655443
vt 0.309875 0.335258
vt 0.309875 0.461386
vt 0.309875 0.587515
vt 0.350782 0.907413
vt 0.964048 0.045126
vt 0.026059 0.685495
vt 0.969462 0.685268
vt 0.965713 0.504704
vt 0.963544 0.332866
vt 0.943287 0.864172
vt 0.387301 0.366722
vt 0.940237 0.686907
vt 0.951179 0.863202
vt 0.953153 0.222833
vt 0.290109 0.863118
vt 0.387043 0.655412
vt 0.922132 0.686423
vt 0.906260 0.863118
vt 0.925934 0.862153
vt 0.305902 0.741969
vt 0.679031 0.683988
vt 0.953055 0.499360
vt 0.313290 0.741969
vt 0.963506 0.683988
vn -0.5934 0.5436 -0.5936
vn 0.0682 0.9758 -0.2076
vn 0.0000 0.9995 -0.0322
vn -0.7070 0.0000 -0.7072
vn -0.9046 -0.3015 0.3013
vn -0.3013 0.3015 -0.9046
vn 0.7072 0.0000 -0.7070
vn 0.7070 0.0000 0.7072
vn 0.3013 0.3015 0.9046
vn -0.7072 0.0000 0.7070
vn 0.5936 0.5436 -0.5934
vn 0.9045 0.3015 0.3017
vn -0.2076 0.9758 0.0681
vn -0.1507 0.9770 -0.1508
vn 0.5934 0.5436 0.5936
vn -0.0682 0.9758 0.2076
vn 0.0000 0.9995 0.0322
vn 0.2076 0.9758 0.0682
vn 0.0322 0.9995 0.0000
vn -0.5936 0.5436 0.5934
vn -0.2076 0.9758 -0.0682
vn -0.0322 0.9995 0.0000
vn -0.5361 0.8442 -0.0001
vn -0.1508 0.9770 0.1507
vn -0.4281 0.7960 0.4280
vn -0.5614 0.8275 -0.0001
vn -0.0681 0.9758 -0.2076
vn 0.0001 0.8442 -0.5361
vn 0.1508 0.9770 -0.1507
vn 0.5361 0.8442 0.0001
vn 0.4281 0.7960 -0.4280
vn 0.5614 0.8275 0.0001
vn 0.0708 0.9950 -0.0708
vn 0.1507 0.9770 0.1508
vn 0.2076 0.9758 -0.0681
vn 0.0708 0.9950 0.0708
vn -0.0708 0.9950 0.0708
vn 0.0681 0.9758 0.2076
vn -0.0001 0.8442 0.5361
vn -0.4280 0.7960 -0.4281
vn 0.0001 0.8275 -0.5614
vn 0.4280 0.7960 0.4281
vn -0.0001 0.8275 0.5614
vn 0.0000 1.0000 0.0000
vn -0.3013 -0.3015 -0.9046
vn 0.5774 -0.5773 -0.5772
vn 0.3017 -0.3015 -0.9045
vn 0.3017 0.3015 -0.9045
vn -0.5772 0.5773 -0.5774
vn 0.5774 0.5773 -0.5772
vn -0.5772 -0.5773 -0.5774
vn 0.9046 0.3015 -0.3013
vn 0.9045 -0.3015 0.3017
vn 0.9046 -0.3015 -0.3013
vn 0.5772 -0.5773 0.5774
vn 0.5772 0.5773 0.5774
vn 0.3013 -0.3015 0.9046
vn -0.5774 -0.5773 0.5772
vn -0.3017 -0.3015 0.9045
vn -0.3017 0.3015 0.9045
vn -0.5774 0.5773 0.5772
vn -0.9045 -0.3015 -0.3017
vn -0.9045 0.3015 -0.3017
vn -0.9046 0.3015 0.3013
vn -0.0708 0.9950 -0.0708
usemtl Material
s 1
f 7/1/1 24/2/2 15/3/3
f 8/4/4 67/5/5 7/6/1
f 8/7/4 17/8/6 6/9/7
f 2/10/8 61/11/9 4/12/10
f 5/13/11 51/14/12 6/15/7
f 24/2/2 18/16/13 33/17/14
f 1/18/15 23/19/16 14/20/17
f 5/21/11 25/22/18 16/23/19
f 3/24/20 22/25/21 13/26/22
f 26/27/23 22/25/21 32/28/24
f 26/29/23 41/30/25 37/31/26
f 20/32/27 29/33/28 30/34/29
f 27/35/30 39/36/31 34/37/32
f 25/22/18 27/38/30 16/23/19
f 12/39/33 30/34/29 25/22/18
f 31/40/34 14/20/17 23/19/16
f 21/41/35 23/19/16 11/42/36
f 16/23/19 31/40/34 21/41/35
f 32/28/24 9/43/37 19/44/38
f 28/45/39 19/44/38 14/20/17
f 29/46/28 42/47/40 36/48/41
f 33/17/14 13/26/22 26/27/23
f 28/49/39 40/50/42 38/51/43
f 15/3/3 33/17/14 29/33/28
f 34/52/32 38/53/43 40/54/42
f 39/55/31 35/56/44 34/52/32
f 35/56/44 41/57/25 38/53/43
f 36/58/41 37/59/26 35/56/44
f 29/46/28 39/60/31 30/61/29
f 28/49/39 41/62/25 32/63/24
f 27/35/30 40/64/42 31/65/34
f 26/29/23 42/66/40 33/67/14
f 45/68/45 48/69/46 44/70/47
f 5/71/11 44/72/47 7/73/1
f 6/9/7 45/74/45 5/71/11
f 7/73/1 43/75/48 8/7/4
f 48/76/46 46/77/49 47/78/50
f 44/79/47 47/80/50 43/81/48
f 17/82/6 49/83/51 45/84/45
f 43/85/48 46/86/49 17/87/6
f 51/88/12 54/89/50 50/90/52
f 6/15/7 50/91/52 2/92/8
f 1/93/15 53/94/53 5/13/11
f 2/92/8 52/95/54 1/93/15
f 57/96/55 54/97/50 55/98/56
f 52/99/54 57/100/55 53/101/53
f 50/102/52 56/103/46 52/104/54
f 53/105/53 55/106/56 51/107/12
f 60/108/57 62/109/58 58/110/59
f 3/111/20 58/112/59 1/113/15
f 4/12/10 60/114/57 3/111/20
f 1/113/15 59/115/60 2/10/8
f 62/116/58 65/117/56 63/118/61
f 58/119/59 63/120/61 59/121/60
f 59/122/60 65/123/56 61/124/9
f 61/125/9 64/126/55 60/127/57
f 68/128/62 73/129/49 69/130/63
f 4/131/10 66/132/64 8/4/4
f 7/6/1 68/133/62 3/134/20
f 3/134/20 69/135/63 4/131/10
f 72/136/51 70/137/61 73/138/49
f 67/139/5 72/140/51 68/141/62
f 66/142/64 71/143/58 67/144/5
f 69/145/63 70/146/61 66/147/64
f 12/39/33 5/21/11 20/32/27
f 5/21/11 7/1/1 15/3/3
f 7/1/1 10/148/65 24/2/2
f 15/3/3 20/32/27 5/21/11
f 8/4/4 66/132/64 67/5/5
f 8/7/4 43/75/48 17/8/6
f 2/10/8 59/115/60 61/11/9
f 5/13/11 53/94/53 51/14/12
f 24/2/2 10/148/65 18/16/13
f 9/43/37 3/24/20 19/44/38
f 3/24/20 1/18/15 14/20/17
f 1/18/15 11/42/36 23/19/16
f 14/20/17 19/44/38 3/24/20
f 11/42/36 1/18/15 21/41/35
f 1/18/15 5/21/11 16/23/19
f 5/21/11 12/39/33 25/22/18
f 16/23/19 21/41/35 1/18/15
f 10/148/65 7/1/1 18/16/13
f 7/1/1 3/24/20 13/26/22
f 3/24/20 9/43/37 22/25/21
f 13/26/22 18/16/13 7/1/1
f 26/27/23 13/26/22 22/25/21
f 26/29/23 32/149/24 41/30/25
f 20/32/27 15/3/3 29/33/28
f 27/35/30 30/150/29 39/36/31
f 25/22/18 30/34/29 27/38/30
f 12/39/33 20/32/27 30/34/29
f 31/40/34 28/45/39 14/20/17
f 21/41/35 31/40/34 23/19/16
f 16/23/19 27/38/30 31/40/34
f 32/28/24 22/25/21 9/43/37
f 28/45/39 32/28/24 19/44/38
f 29/46/28 33/151/14 42/47/40
f 33/17/14 18/16/13 13/26/22
f 28/49/39 31/152/34 40/50/42
f 15/3/3 24/2/2 33/17/14
f 34/52/32 35/56/44 38/53/43
f 39/55/31 36/58/41 35/56/44
f 35/56/44 37/59/26 41/57/25
f 36/58/41 42/153/40 37/59/26
f 29/46/28 36/48/41 39/60/31
f 28/49/39 38/51/43 41/62/25
f 27/35/30 34/37/32 40/64/42
f 26/29/23 37/31/26 42/66/40
f 45/68/45 49/154/51 48/69/46
f 5/71/11 45/74/45 44/72/47
f 6/9/7 17/8/6 45/74/45
f 7/73/1 44/72/47 43/75/48
f 48/76/46 49/155/51 46/77/49
f 44/79/47 48/156/46 47/80/50
f 17/82/6 46/157/49 49/83/51
f 43/85/48 47/158/50 46/86/49
f 51/88/12 55/159/56 54/89/50
f 6/15/7 51/14/12 50/91/52
f 1/93/15 52/95/54 53/94/53
f 2/92/8 50/91/52 52/95/54
f 57/96/55 56/160/46 54/97/50
f 52/99/54 56/161/46 57/100/55
f 50/102/52 54/162/50 56/103/46
f 53/105/53 57/163/55 55/106/56
f 60/108/57 64/164/55 62/109/58
f 3/111/20 60/114/57 58/112/59
f 4/12/10 61/11/9 60/114/57
f 1/113/15 58/112/59 59/115/60
f 62/116/58 64/165/55 65/117/56
f 58/119/59 62/166/58 63/120/61
f 59/122/60 63/167/61 65/123/56
f 61/125/9 65/168/56 64/126/55
f 68/128/62 72/169/51 73/129/49
f 4/131/10 69/135/63 66/132/64
f 7/6/1 67/5/5 68/133/62
f 3/134/20 68/133/62 69/135/63
f 72/136/51 71/170/58 70/137/61
f 67/139/5 71/171/58 72/140/51
f 66/142/64 70/172/61 71/143/58
f 69/145/63 73/173/49 70/146/61
