# Blender v2.83.4 OBJ File: 'temple_prototype_export.blend'
# www.blender.org
mtllib temple_prototype_export.mtl
o Cube
v 5.000000 2.964940 -4.000000
v 12.127557 -1.945343 -9.162624
v 5.000000 2.964940 4.000000
v 12.127557 -1.945343 8.888841
v 3.465646 -1.945343 10.621223
v 1.000000 2.964940 5.000000
v 3.465646 -1.945343 8.888841
v 1.000000 2.964940 4.000000
v 3.750000 6.002571 -3.000000
v 3.750000 6.002571 3.000000
v 5.000000 2.964940 3.000000
v 3.750000 2.964940 4.000000
v 3.750000 2.964940 3.000000
v 3.750000 2.964940 -3.000000
v 2.812500 6.002571 3.000000
v 3.750000 6.002571 0.992448
v 2.812500 6.002571 -3.000000
v 3.750000 6.002571 -0.979888
v 2.812500 6.002571 -0.979888
v 2.812500 6.002571 0.992448
v 2.812500 6.002571 -0.750000
v 2.109375 6.002571 -1.000000
v 2.812500 6.002571 0.750000
v 2.109375 6.002571 -0.750000
v 2.109375 6.002571 0.750000
v 1.811399 7.002571 -0.750000
v 2.812500 7.002571 -0.750000
v 1.809375 7.002571 -1.100000
v 2.812500 7.002571 0.750000
v 1.811399 7.002571 0.750000
v 1.809375 7.002571 1.100000
v 2.446528 7.802571 0.750000
v 5.000000 2.964940 -3.000000
v 2.609854 8.002571 0.750435
v 2.609854 8.002571 -0.749486
v 3.750000 2.964940 -4.000000
v 2.814924 7.802571 0.750000
v 2.446528 7.802571 -0.750000
v 2.814924 7.802571 -0.750000
v 2.586293 8.086402 0.700000
v 2.586293 8.086402 -0.700000
v 2.109375 6.002571 1.000000
v 1.054688 6.002571 1.000000
v 2.075034 6.002572 3.000000
v 2.092204 6.002572 1.200000
v 2.128972 6.002571 -3.000000
v 2.119173 6.002571 -1.200000
v -5.000000 2.964940 -4.000000
v -12.125793 -1.945343 -9.162624
v -5.000000 2.964940 4.000000
v -12.125793 -1.945343 8.888841
v 0.000881 -1.945343 -9.162624
v 0.000000 2.964940 -4.000000
v -3.463883 -1.945343 10.621223
v -1.000000 2.964940 5.000000
v -1.000000 2.964940 4.000000
v -3.750000 6.002571 -3.000000
v -3.750000 6.002571 3.000000
v -5.000000 2.964940 3.000000
v -3.750000 2.964940 4.000000
v 0.000000 6.002571 -3.000000
v 0.000000 2.964940 -3.000000
v -3.750000 2.964940 3.000000
v -3.750000 2.964940 -3.000000
v -2.812500 6.002571 3.000000
v -3.750000 6.002571 0.992448
v -2.812500 6.002571 -3.000000
v -3.750000 6.002571 -0.979888
v 0.000000 6.002571 -1.000000
v -2.812500 6.002571 -0.979888
v -2.812500 6.002571 0.992448
v 0.000000 7.002571 1.100000
v -2.812500 6.002571 -0.750000
v -2.109375 6.002571 -1.000000
v -2.812500 6.002571 0.750000
v -2.109375 6.002571 -0.750000
v -2.109375 6.002571 0.750000
v -1.811399 7.002571 -0.750000
v -2.812500 7.002571 -0.750000
v 0.000000 7.002571 -1.100000
v -1.809375 7.002571 -1.100000
v -2.812500 7.002571 0.750000
v -1.811399 7.002571 0.750000
v -1.809375 7.002571 1.100000
v -2.446528 7.802571 0.750000
v -5.000000 2.964940 -3.000000
v -2.609854 8.002571 0.750435
v 0.000000 8.002571 0.750871
v -2.609854 8.002571 -0.749486
v 0.000000 8.002571 -0.748972
v -3.750000 2.964940 -4.000000
v -2.814924 7.802571 0.750000
v -2.446528 7.802571 -0.750000
v -2.814924 7.802571 -0.750000
v -2.586293 8.086402 0.700000
v 0.000000 8.086402 0.700000
v -2.586293 8.086402 -0.700000
v 0.000000 8.086402 -0.700000
v 0.000000 6.002571 1.000000
v 0.000000 6.002571 3.000000
v -2.109375 6.002571 1.000000
v -1.054688 6.002571 1.000000
v -2.075034 6.002572 3.000000
v -2.092204 6.002572 1.200000
v -2.128972 6.002571 -3.000000
v -2.119173 6.002571 -1.200000
v -3.482645 -1.945343 8.888841
vt 0.005256 0.857831
vt 0.005256 0.799565
vt 0.110369 0.938899
vt 0.516041 0.168971
vt 0.516041 0.122358
vt 0.646770 0.029133
vt 0.110369 0.706340
vt 0.183206 0.218004
vt 0.247625 0.171312
vt 0.358895 0.217788
vt 0.775533 0.914787
vt 0.832931 0.815214
vt 0.804232 0.952174
vt 0.294475 0.171255
vt 0.358895 0.497464
vt 0.388176 0.217753
vt 0.388176 0.497429
vt 0.925184 0.289000
vt 0.925184 0.323376
vt 0.779926 0.367075
vt 0.358895 0.544077
vt 0.388176 0.544041
vt 0.271050 0.544185
vt 0.183206 0.544293
vt 0.183206 0.497680
vt 0.388176 0.171140
vt 0.643398 0.934585
vt 0.515880 0.934585
vt 0.515880 0.840422
vt 0.464384 0.497540
vt 0.486345 0.403350
vt 0.486345 0.497513
vt 0.464384 0.322743
vt 0.464384 0.311441
vt 0.486345 0.311414
vt 0.486345 0.217837
vt 0.949084 0.584988
vt 0.982807 0.538603
vt 0.982871 0.584944
vt 0.979655 0.790551
vt 0.918163 0.860447
vt 0.918163 0.790531
vt 0.909027 0.833952
vt 0.841829 0.892719
vt 0.841752 0.833952
vt 0.938093 0.054655
vt 0.950106 0.102135
vt 0.933288 0.102181
vt 0.464384 0.403377
vt 0.447913 0.392682
vt 0.464384 0.392662
vt 0.936720 0.177968
vt 0.932650 0.110404
vt 0.936720 0.108053
vt 0.447913 0.322763
vt 0.979655 0.860470
vt 0.979716 0.876785
vt 0.938093 0.049902
vt 0.950106 0.002422
vt 0.950106 0.049902
vt 0.337411 0.826174
vt 0.337411 0.924497
vt 0.290156 0.910514
vt 0.470434 0.696533
vt 0.504157 0.742963
vt 0.456051 0.742900
vt 0.979716 0.774237
vt 0.351769 0.826174
vt 0.351767 0.704521
vt 0.401243 0.741834
vt 0.347520 0.826174
vt 0.347520 0.705620
vt 0.943775 0.754386
vt 0.935145 0.684477
vt 0.943775 0.684467
vt 0.918689 0.918096
vt 0.990769 0.958816
vt 0.918689 0.958817
vt 0.965169 0.501554
vt 0.982871 0.501530
vt 0.486519 0.780048
vt 0.240563 0.826174
vt 0.236305 0.946728
vt 0.236305 0.826174
vt 0.240566 0.947826
vt 0.990769 0.885574
vt 0.990769 0.918096
vt 0.992219 0.684461
vt 0.992219 0.754380
vt 0.447511 0.301788
vt 0.464384 0.217864
vt 0.448589 0.826174
vt 0.448589 0.875336
vt 0.401243 0.826174
vt 0.398500 0.404395
vt 0.448142 0.413657
vt 0.398500 0.497621
vt 0.120880 0.892791
vt 0.225994 0.752953
vt 0.225994 0.986016
vt 0.023159 0.078227
vt 0.153924 0.218040
vt 0.153924 0.497716
vt 0.183206 0.171391
vt 0.358894 0.171176
vt 0.140032 0.078084
vt 0.247625 0.124699
vt 0.658563 0.866996
vt 0.763676 0.727158
vt 0.763676 0.913609
vt 0.153924 0.544328
vt 0.153924 0.171427
vt 0.310656 0.403566
vt 0.310656 0.497728
vt 0.332617 0.497702
vt 0.310656 0.311630
vt 0.332617 0.311603
vt 0.332617 0.322904
vt 0.310656 0.218052
vt 0.982807 0.639719
vt 0.949084 0.593334
vt 0.982871 0.593378
vt 0.935430 0.405997
vt 0.996922 0.475892
vt 0.935430 0.475916
vt 0.349088 0.311231
vt 0.398025 0.322891
vt 0.349088 0.322884
vt 0.332617 0.403539
vt 0.349088 0.392803
vt 0.349088 0.404456
vt 0.911481 0.896667
vt 0.839405 0.896667
vt 0.935369 0.492230
vt 0.398025 0.392810
vt 0.470434 0.871964
vt 0.504157 0.825534
vt 0.504222 0.871920
vt 0.935369 0.389682
vt 0.996922 0.405976
vt 0.408083 0.392852
vt 0.416713 0.322922
vt 0.416713 0.392841
vt 0.374574 0.392839
vt 0.332617 0.392823
vt 0.965169 0.676768
vt 0.934700 0.639656
vt 0.486519 0.788449
vt 0.456051 0.825597
vt 0.408083 0.322933
vt 0.374574 0.322920
vt 0.504500 0.949556
vt 0.456064 0.879637
vt 0.504500 0.879637
vt 0.332617 0.218026
vt 0.349892 0.218004
vt 0.349490 0.301908
vt 0.423207 0.311140
vt 0.398500 0.311170
vt 0.398500 0.217945
vt 0.348858 0.413779
vt 0.005256 0.986016
vt 0.779919 0.576832
vt 0.779919 0.477595
vt 0.925036 0.576832
vt 0.658732 0.184120
vt 0.767237 0.032629
vt 0.767237 0.358918
vt 0.294475 0.124642
vt 0.120880 0.834525
vt 0.120880 0.706340
vt 0.646770 0.611792
vt 0.516041 0.448647
vt 0.516041 0.495260
vt 0.804232 0.777827
vt 0.779926 0.017480
vt 0.925184 0.192277
vt 0.925184 0.017480
vt 0.925184 0.061179
vt 0.925184 0.095554
vt 0.925184 0.367075
vt 0.271050 0.497572
vt 0.515880 0.654908
vt 0.643398 0.654908
vt 0.515880 0.748486
vt 0.934700 0.538666
vt 0.841676 0.775184
vt 0.908951 0.775184
vt 0.909104 0.892719
vt 0.950106 0.054655
vt 0.447913 0.404335
vt 0.932650 0.175661
vt 0.447913 0.311110
vt 0.933288 0.002376
vt 0.290156 0.826174
vt 0.290156 0.741834
vt 0.337411 0.727850
vt 0.504222 0.696577
vt 0.401243 0.910514
vt 0.351767 0.947826
vt 0.347520 0.946728
vt 0.935145 0.754396
vt 0.504222 0.780072
vt 0.236305 0.705620
vt 0.240566 0.704521
vt 0.918689 0.885574
vt 0.447109 0.217885
vt 0.448589 0.924497
vt 0.448589 0.777012
vt 0.448589 0.727850
vt 0.348629 0.497682
vt 0.448372 0.497560
vt 0.023159 0.660885
vt 0.140285 0.031471
vt 0.658563 0.773771
vt 0.398073 0.306577
vt 0.398073 0.409125
vt 0.982871 0.676792
vt 0.504222 0.788426
vt 0.456064 0.949556
vt 0.373794 0.311200
vt 0.779919 0.402035
vt 0.925036 0.402035
vt 0.779919 0.445734
vt 0.925036 0.751630
vt 0.779919 0.676069
vt 0.779919 0.751630
vt 0.779919 0.707930
vt 0.658732 0.533715
vt 0.658732 0.358918
vt 0.658732 0.125854
vt 0.767237 0.685207
vt 0.658732 0.591981
vn 0.0000 0.7056 0.7087
vn 0.5673 0.8235 0.0000
vn 0.0000 1.0000 0.0000
vn 0.8937 0.4487 0.0000
vn 0.0000 0.0000 1.0000
vn 1.0000 0.0000 0.0000
vn 0.0000 0.0000 -1.0000
vn 0.7815 -0.6240 0.0000
vn 0.9580 0.2868 0.0055
vn 0.9627 0.2706 0.0000
vn 0.7815 -0.6240 -0.0045
vn 0.9584 0.2856 0.0000
vn 0.0000 -0.0995 -0.9950
vn 0.7814 -0.6240 0.0045
vn -0.0002 0.3299 0.9440
vn 0.0000 0.5188 0.8549
vn 0.0000 0.5044 -0.8635
vn 0.0002 0.3309 -0.9437
vn 1.0000 -0.0030 0.0000
vn -0.7832 0.6218 0.0000
vn 0.0000 -0.0995 0.9950
vn -0.5674 0.8234 0.0000
vn -0.8924 0.4512 0.0000
vn 0.0000 0.7531 0.6579
vn -1.0000 0.0000 0.0000
vn -0.7815 -0.6240 0.0000
vn -0.9584 0.2856 0.0000
vn -0.9627 0.2706 0.0000
vn -0.7815 -0.6240 -0.0045
vn -0.7814 -0.6240 0.0045
vn -1.0000 -0.0030 0.0000
vn 0.7832 0.6218 0.0000
vn 0.0000 0.7246 -0.6892
vn 0.9580 0.2868 -0.0055
vn 0.0000 0.3296 0.9441
vn 0.0002 0.3299 0.9440
vn -0.0001 0.5155 0.8569
vn 0.0001 0.5155 0.8569
vn -0.0002 0.5083 -0.8612
vn 0.0002 0.5083 -0.8612
vn -0.0002 0.3309 -0.9437
vn 0.0000 0.3312 -0.9436
vn -0.8893 0.4573 0.0096
vn -0.9580 0.2868 0.0055
vn -0.9580 0.2868 -0.0055
usemtl Material
s off
f 60/1/1 50/2/1 107/3/1
f 11/4/2 3/5/2 4/6/2
f 107/3/1 50/2/1 51/7/1
f 63/8/3 56/9/3 13/10/3
f 7/11/4 6/12/4 5/13/4
f 8/14/3 13/10/3 56/9/3
f 14/15/3 11/16/3 33/17/3
f 103/18/5 65/19/5 63/20/5
f 36/21/3 33/17/3 1/22/3
f 53/23/3 91/24/3 64/25/3
f 13/10/3 3/26/3 11/16/3
f 14/27/6 9/28/6 18/29/6
f 17/30/3 18/31/3 9/32/3
f 23/33/3 20/34/3 16/35/3
f 20/34/3 10/36/3 16/35/3
f 24/37/7 27/38/7 21/39/7
f 30/40/8 35/41/8 34/42/8
f 98/43/3 95/44/3 96/45/3
f 42/46/9 30/47/9 31/48/9
f 19/49/3 24/50/3 21/51/3
f 35/52/10 40/53/10 34/54/10
f 25/55/3 20/34/3 23/33/3
f 26/56/11 28/57/11 35/41/11
f 22/58/12 26/59/12 24/60/12
f 69/61/13 74/62/13 81/63/13
f 25/64/5 29/65/5 30/66/5
f 31/67/14 30/40/14 34/42/14
f 88/68/15 87/69/15 84/70/15
f 96/71/16 95/72/16 88/68/16
f 32/73/3 39/74/3 38/75/3
f 27/76/6 23/77/6 21/78/6
f 27/38/7 38/79/7 39/80/7
f 29/65/5 32/81/5 30/66/5
f 90/82/17 97/83/17 98/84/17
f 81/63/18 89/85/18 90/82/18
f 27/76/19 37/86/19 29/87/19
f 32/73/20 26/88/20 30/89/20
f 45/90/3 15/91/3 20/34/3
f 99/92/21 43/93/21 72/94/21
f 69/95/3 47/96/3 61/97/3
f 47/96/3 19/49/3 17/30/3
f 3/98/1 7/99/1 4/100/1
f 51/101/22 59/102/22 86/103/22
f 56/9/3 63/8/3 60/104/3
f 12/105/3 13/10/3 8/14/3
f 107/106/23 55/107/23 56/9/23
f 6/108/24 54/109/24 5/110/24
f 59/102/3 64/25/3 86/103/3
f 86/103/3 91/24/3 48/111/3
f 50/112/3 63/8/3 59/102/3
f 68/113/25 57/114/25 64/25/25
f 68/113/3 67/115/3 57/114/3
f 66/116/3 71/117/3 75/118/3
f 58/119/3 71/117/3 66/116/3
f 79/120/7 76/121/7 73/122/7
f 83/123/26 89/124/26 78/125/26
f 101/126/27 83/127/27 77/128/27
f 70/129/3 76/130/3 74/131/3
f 95/44/28 89/132/28 87/133/28
f 71/117/3 77/128/3 75/118/3
f 78/125/29 89/124/29 81/134/29
f 78/135/27 74/131/27 76/130/27
f 77/136/5 82/137/5 75/138/5
f 84/139/30 87/140/30 83/123/30
f 94/141/3 85/142/3 93/143/3
f 75/118/25 79/144/25 73/145/25
f 79/120/7 93/146/7 78/147/7
f 85/148/5 82/137/5 83/149/5
f 92/150/31 79/144/31 82/151/31
f 78/152/32 85/153/32 83/154/32
f 65/155/3 103/156/3 104/157/3
f 43/158/3 99/159/3 100/160/3
f 70/129/3 74/131/3 106/161/3
f 107/3/1 56/162/1 60/1/1
f 61/163/7 46/164/7 62/165/7
f 36/166/33 2/167/33 52/168/33
f 8/14/3 55/107/3 6/169/3
f 12/170/1 7/99/1 3/98/1
f 8/171/1 7/99/1 12/170/1
f 4/6/2 2/172/2 33/173/2
f 2/172/2 1/174/2 33/173/2
f 33/173/2 11/4/2 4/6/2
f 7/11/4 8/175/4 6/12/4
f 14/15/3 13/10/3 11/16/3
f 63/20/5 13/176/5 100/177/5
f 13/176/5 10/178/5 15/179/5
f 15/179/5 44/180/5 13/176/5
f 44/180/5 100/177/5 13/176/5
f 65/19/5 58/181/5 63/20/5
f 100/177/5 103/18/5 63/20/5
f 36/21/3 14/15/3 33/17/3
f 64/25/3 62/182/3 53/23/3
f 62/182/3 14/15/3 53/23/3
f 14/15/3 36/21/3 53/23/3
f 13/10/3 12/105/3 3/26/3
f 10/183/6 13/184/6 16/185/6
f 13/184/6 14/27/6 18/29/6
f 16/185/6 13/184/6 18/29/6
f 17/30/3 19/49/3 18/31/3
f 16/35/3 18/31/3 23/33/3
f 18/31/3 19/49/3 21/51/3
f 21/51/3 23/33/3 18/31/3
f 20/34/3 15/91/3 10/36/3
f 24/37/7 26/186/7 27/38/7
f 30/40/8 26/56/8 35/41/8
f 40/187/3 41/188/3 98/43/3
f 98/43/3 97/189/3 95/44/3
f 96/45/3 40/187/3 98/43/3
f 42/46/12 25/190/12 30/47/12
f 19/49/3 22/191/3 24/50/3
f 35/52/10 41/192/10 40/53/10
f 25/55/3 42/193/3 20/34/3
f 22/58/34 28/194/34 26/59/34
f 81/63/13 80/195/13 69/61/13
f 80/195/13 28/196/13 69/61/13
f 28/196/13 22/197/13 69/61/13
f 25/64/5 23/198/5 29/65/5
f 84/70/35 72/94/35 88/68/35
f 72/94/35 31/199/35 88/68/35
f 31/199/36 34/200/36 88/68/36
f 87/69/37 88/68/37 95/72/37
f 88/68/38 34/200/38 40/201/38
f 96/71/16 88/68/16 40/201/16
f 32/73/3 37/202/3 39/74/3
f 27/76/6 29/87/6 23/77/6
f 27/38/7 26/186/7 38/79/7
f 29/65/5 37/203/5 32/81/5
f 41/204/39 35/205/39 90/82/39
f 90/82/40 89/85/40 97/83/40
f 98/84/17 41/204/17 90/82/17
f 35/205/41 28/196/41 90/82/41
f 28/196/42 80/195/42 90/82/42
f 80/195/42 81/63/42 90/82/42
f 27/76/19 39/206/19 37/86/19
f 32/73/20 38/75/20 26/88/20
f 20/34/3 42/193/3 45/90/3
f 45/90/3 44/207/3 15/91/3
f 43/93/21 42/208/21 31/199/21
f 72/94/21 84/70/21 102/209/21
f 84/70/21 101/210/21 102/209/21
f 43/93/21 31/199/21 72/94/21
f 102/209/21 99/92/21 72/94/21
f 105/211/3 106/161/3 61/97/3
f 106/161/3 74/131/3 69/95/3
f 69/95/3 22/191/3 47/96/3
f 106/161/3 69/95/3 61/97/3
f 47/96/3 46/212/3 61/97/3
f 17/30/3 46/212/3 47/96/3
f 47/96/3 22/191/3 19/49/3
f 48/111/22 49/213/22 86/103/22
f 49/213/22 51/101/22 86/103/22
f 51/101/22 50/112/22 59/102/22
f 107/106/43 54/214/43 55/107/43
f 6/108/24 55/215/24 54/109/24
f 59/102/3 63/8/3 64/25/3
f 86/103/3 64/25/3 91/24/3
f 50/112/3 60/104/3 63/8/3
f 64/25/25 63/8/25 68/113/25
f 63/8/25 58/119/25 66/116/25
f 66/116/25 68/113/25 63/8/25
f 68/113/3 70/129/3 67/115/3
f 70/129/3 68/113/3 73/145/3
f 68/113/3 66/116/3 75/118/3
f 73/145/3 68/113/3 75/118/3
f 58/119/3 65/155/3 71/117/3
f 79/120/7 78/147/7 76/121/7
f 83/123/26 87/140/26 89/124/26
f 101/126/44 84/216/44 83/127/44
f 70/129/3 73/145/3 76/130/3
f 95/44/28 97/189/28 89/132/28
f 71/117/3 101/126/3 77/128/3
f 78/135/45 81/217/45 74/131/45
f 77/136/5 83/149/5 82/137/5
f 94/141/3 92/150/3 85/142/3
f 75/118/25 82/151/25 79/144/25
f 79/120/7 94/218/7 93/146/7
f 85/148/5 92/219/5 82/137/5
f 92/150/31 94/141/31 79/144/31
f 78/152/32 93/220/32 85/153/32
f 104/157/3 101/126/3 71/117/3
f 71/117/3 65/155/3 104/157/3
f 104/157/3 103/156/3 102/221/3
f 103/156/3 100/160/3 102/221/3
f 100/160/3 44/207/3 43/158/3
f 44/207/3 45/90/3 43/158/3
f 45/90/3 42/193/3 43/158/3
f 99/159/3 102/221/3 100/160/3
f 102/221/3 101/126/3 104/157/3
f 106/161/3 105/211/3 67/115/3
f 67/115/3 70/129/3 106/161/3
f 9/222/7 14/223/7 17/224/7
f 14/223/7 62/165/7 46/164/7
f 17/224/7 14/223/7 46/164/7
f 62/165/7 64/225/7 105/226/7
f 64/225/7 57/227/7 67/228/7
f 67/228/7 105/226/7 64/225/7
f 105/226/7 61/163/7 62/165/7
f 91/229/33 53/230/33 52/168/33
f 53/230/33 36/166/33 52/168/33
f 36/166/33 1/231/33 2/167/33
f 52/168/33 49/232/33 91/229/33
f 49/232/33 48/233/33 91/229/33
f 8/14/3 56/9/3 55/107/3
