# Blender v2.83.2 OBJ File: 'test_model_uv.blend'
# www.blender.org
mtllib test_model.mtl
o Cube
v 0.304240 0.611858 0.304180
v 0.304240 0.003438 0.304180
v -0.304180 0.611858 0.304240
v -0.304180 0.003438 0.304240
v 0.304180 0.611858 -0.304240
v 0.304180 0.003438 -0.304240
v -0.304240 0.611858 -0.304180
v -0.304240 0.003438 -0.304180
v -0.231290 0.611858 0.231335
v -0.231335 0.611858 -0.231290
v 0.231335 0.611858 0.231290
v 0.231290 0.611858 -0.231335
v -0.231290 0.611858 0.231335
v -0.231335 0.611858 -0.231290
v 0.231335 0.611858 0.231290
v 0.231290 0.611858 -0.231335
v -0.112454 1.435294 0.112476
v -0.112476 1.435294 -0.112454
v 0.112476 1.435294 0.112454
v 0.112454 1.435294 -0.112476
v 0.177157 0.708289 0.217378
v -0.177115 0.708289 0.217412
v 0.086136 1.338864 0.126375
v -0.086112 1.338864 0.126391
v 0.177152 0.701177 0.168105
v -0.177120 0.701177 0.168139
v 0.086132 1.331752 0.077102
v -0.086117 1.331752 0.077118
v 0.121918 0.799486 0.153921
v -0.121888 0.799486 0.153945
v 0.059279 1.233443 0.091293
v -0.059261 1.233443 0.091305
v 0.121918 0.799486 0.153921
v -0.121888 0.799486 0.153945
v 0.059279 1.233443 0.091293
v -0.059261 1.233443 0.091305
v 0.121922 0.804667 0.189814
v -0.121885 0.804667 0.189838
v 0.059282 1.238623 0.127187
v -0.059257 1.238623 0.127198
v 0.275096 0.582715 0.304183
v 0.275096 0.032582 0.304183
v -0.275037 0.582715 0.304237
v -0.275037 0.032582 0.304237
v 0.304240 0.387013 0.304180
v -0.304240 0.387013 -0.304180
v -0.304180 0.387013 0.304240
v 0.304180 0.387013 -0.304240
v 0.275096 0.387013 0.304183
v -0.275037 0.387013 0.304237
v -0.304240 0.548186 -0.304180
v 0.304240 0.548186 0.304180
v -0.304180 0.548186 0.304240
v 0.304180 0.548186 -0.304240
v 0.275096 0.533614 0.304183
v -0.275037 0.533614 0.304237
v -0.001732 0.003438 -0.304210
v -0.001673 0.611858 0.304210
v -0.001732 0.611858 -0.304210
v -0.001673 0.003438 0.304210
v -0.001272 0.611858 0.231313
v -0.001317 0.611858 -0.231313
v -0.001272 0.611858 0.231313
v -0.001317 0.611858 -0.231313
v -0.000618 1.435294 0.112465
v -0.000640 1.435294 -0.112465
v -0.000970 0.708289 0.217395
v -0.000470 1.338864 0.126383
v -0.000975 0.701177 0.168122
v -0.000474 1.331752 0.077110
v -0.000667 0.799486 0.153933
v -0.000323 1.233443 0.091299
v -0.000667 0.799486 0.153933
v -0.000323 1.233443 0.091299
v -0.000664 0.804667 0.189826
v -0.000319 1.238623 0.127193
v -0.001509 0.582715 0.304210
v -0.001509 0.032582 0.304210
v -0.001509 0.387013 0.304210
v -0.001732 0.387013 -0.304210
v -0.001509 0.533614 0.304210
v -0.001732 0.548186 -0.304210
v -0.172222 0.003438 -0.304193
v -0.172163 0.611858 0.304227
v -0.135517 0.611858 0.231326
v -0.135517 0.611858 0.231326
v -0.075773 1.435294 0.112472
v -0.108279 0.708289 0.217405
v -0.062527 1.338864 0.126389
v -0.108283 0.701177 0.168132
v -0.062532 1.331752 0.077116
v -0.080514 0.799486 0.153941
v -0.049028 1.233443 0.091304
v -0.080514 0.799486 0.153941
v -0.049028 1.233443 0.091304
v -0.080511 0.804667 0.189834
v -0.049025 1.238623 0.127197
v -0.157509 0.582715 0.304225
v -0.157509 0.387013 0.304225
v -0.157509 0.533614 0.304225
v -0.172222 0.611858 -0.304193
v -0.172163 0.003438 0.304227
v -0.135562 0.611858 -0.231300
v -0.135562 0.611858 -0.231300
v -0.075794 1.435294 -0.112458
v -0.157509 0.032582 0.304225
v -0.172222 0.387013 -0.304193
v -0.172222 0.548186 -0.304193
v 0.171695 0.611858 -0.304227
v 0.171754 0.003438 0.304193
v 0.135457 0.611858 -0.231326
v 0.135457 0.611858 -0.231326
v 0.076377 1.435294 -0.112472
v 0.157263 0.032582 0.304195
v 0.171695 0.387013 -0.304227
v 0.171695 0.548186 -0.304227
v 0.171695 0.003438 -0.304227
v 0.171754 0.611858 0.304193
v 0.135502 0.611858 0.231300
v 0.135502 0.611858 0.231300
v 0.076399 1.435294 0.112458
v 0.108564 0.708289 0.217384
v 0.063304 1.338864 0.126377
v 0.108559 0.701177 0.168111
v 0.063299 1.331752 0.077104
v 0.081096 0.799486 0.153925
v 0.049948 1.233443 0.091294
v 0.081096 0.799486 0.153925
v 0.049948 1.233443 0.091294
v 0.081099 0.804667 0.189818
v 0.049952 1.238623 0.127188
v 0.157263 0.582715 0.304195
v 0.157263 0.387013 0.304195
v 0.157263 0.533614 0.304195
v 0.157265 0.387013 0.317582
v -0.001508 0.387013 0.317597
v 0.157265 0.533614 0.317582
v -0.001508 0.533614 0.317597
v -0.157508 0.387013 0.317612
v -0.157508 0.533614 0.317612
vt 0.628864 0.767887
vt 0.789170 0.745170
vt 0.810991 0.767887
vt 0.811196 0.039816
vt 0.792119 0.229418
vt 0.792119 0.039816
vt 0.628883 0.350337
vt 0.647953 0.309051
vt 0.647953 0.350337
vt 0.370732 0.811723
vt 0.552455 0.770582
vt 0.552455 0.811723
vt 0.152880 0.865787
vt 0.046913 0.856705
vt 0.152880 0.856705
vt 0.220579 0.406951
vt 0.201502 0.596553
vt 0.201501 0.406951
vt 0.000000 0.000000
vt 0.000000 0.000000
vt 0.000000 0.000000
vt 0.810991 0.578285
vt 0.650685 0.601002
vt 0.628864 0.578285
vt 0.628864 0.619426
vt 0.650685 0.630848
vt 0.810991 0.726600
vt 0.789170 0.715305
vt 0.422860 0.676730
vt 0.525885 0.419418
vt 0.561502 0.676730
vt 0.000000 0.000000
vt 0.000000 0.000000
vt 0.000000 0.000000
vt 0.000000 0.000000
vt 0.000000 0.000000
vt 0.000000 0.000000
vt 0.000000 0.000000
vt 0.371463 0.632896
vt 0.304131 0.644327
vt 0.304131 0.632896
vt 0.132140 0.054295
vt 0.151521 0.282563
vt 0.124246 0.084572
vt 0.335928 0.054131
vt 0.329013 0.311899
vt 0.318020 0.311899
vt 0.422860 0.311347
vt 0.525885 0.054035
vt 0.561502 0.311347
vt 0.271939 0.407604
vt 0.286858 0.605522
vt 0.271939 0.605529
vt 0.057835 0.312840
vt 0.045351 0.282563
vt 0.065907 0.282563
vt 0.064732 0.054295
vt 0.029115 0.312840
vt 0.121147 0.054295
vt 0.117178 0.084572
vt 0.950429 0.580047
vt 0.961152 0.747170
vt 0.942381 0.610914
vt 0.852486 0.404883
vt 0.867337 0.426258
vt 0.852486 0.426258
vt 0.852612 0.041566
vt 0.867531 0.239499
vt 0.852612 0.239492
vt 0.271933 0.658368
vt 0.286825 0.665717
vt 0.271933 0.665717
vt 0.000000 0.000000
vt 0.000000 0.000000
vt 0.000000 0.000000
vt 0.943361 0.580047
vt 0.939315 0.610914
vt 0.898809 0.580047
vt 0.888086 0.747170
vt 0.871534 0.778037
vt 0.892090 0.778037
vt 0.900320 0.747170
vt 0.603743 0.899635
vt 0.592895 0.886914
vt 0.603743 0.886914
vt 0.000000 0.000000
vt 0.000000 0.000000
vt 0.000000 0.000000
vt 0.000000 0.000000
vt 0.000000 0.000000
vt 0.000000 0.000000
vt 0.000000 0.000000
vt 0.366167 0.394644
vt 0.359631 0.530899
vt 0.356834 0.530899
vt 0.872738 0.509693
vt 0.883607 0.372695
vt 0.883607 0.509697
vt 0.303082 0.703745
vt 0.292264 0.700557
vt 0.303082 0.700557
vt 0.883815 0.165774
vt 0.872947 0.028775
vt 0.883815 0.028771
vt 0.211390 0.820080
vt 0.196710 0.856705
vt 0.196710 0.820080
vt 0.201067 0.676186
vt 0.211390 0.685268
vt 0.196710 0.685268
vt 0.038200 0.717472
vt 0.046913 0.685268
vt 0.046913 0.721988
vt 0.220104 0.824647
vt 0.211390 0.856705
vt 0.152880 0.676186
vt 0.038200 0.676186
vt 0.152880 0.820080
vt 0.046913 0.820080
vt 0.153210 0.406951
vt 0.038282 0.596553
vt 0.038282 0.406951
vt 0.201067 0.865787
vt 0.696223 0.350337
vt 0.811101 0.309051
vt 0.811101 0.350337
vt 0.743827 0.039816
vt 0.628900 0.229418
vt 0.628900 0.039816
vt 0.220104 0.865787
vt 0.152880 0.685268
vt 0.153210 0.596553
vt 0.696223 0.309051
vt 0.743827 0.229418
vt 0.647953 0.457512
vt 0.696223 0.404382
vt 0.696223 0.457512
vt 0.390457 0.679640
vt 0.386445 0.633964
vt 0.390457 0.633964
vt 0.811101 0.404382
vt 0.811101 0.457512
vt 0.152880 0.721988
vt 0.046913 0.771466
vt 0.220104 0.771517
vt 0.211390 0.721988
vt 0.220104 0.717472
vt 0.038200 0.771517
vt 0.038200 0.824647
vt 0.196710 0.771466
vt 0.196710 0.721988
vt 0.303082 0.685378
vt 0.292264 0.669713
vt 0.303082 0.669713
vt 0.341664 0.394644
vt 0.327172 0.530899
vt 0.317735 0.394644
vt 0.000000 0.000000
vt 0.000000 0.000000
vt 0.000000 0.000000
vt 0.000000 0.000000
vt 0.000000 0.000000
vt 0.000000 0.000000
vt 0.603743 0.861434
vt 0.592895 0.836552
vt 0.603743 0.836552
vt 0.924916 0.778037
vt 0.948752 0.747170
vt 0.957075 0.778037
vt 0.924763 0.580047
vt 0.909653 0.610914
vt 0.905651 0.580047
vt 0.271933 0.685056
vt 0.286825 0.704930
vt 0.271933 0.704930
vt 0.852486 0.460392
vt 0.867337 0.493833
vt 0.852486 0.493833
vt 0.098625 0.054295
vt 0.079469 0.084572
vt 0.075544 0.054295
vt 0.098824 0.312840
vt 0.130892 0.282563
vt 0.139056 0.312840
vt 0.295696 0.054131
vt 0.272416 0.311899
vt 0.254707 0.054131
vt 0.371463 0.585475
vt 0.304131 0.609476
vt 0.304131 0.585475
vt 0.000000 0.000000
vt 0.000000 0.000000
vt 0.000000 0.000000
vt 0.810991 0.672555
vt 0.789170 0.630848
vt 0.810991 0.619426
vt 0.628864 0.672555
vt 0.650685 0.715305
vt 0.628864 0.726600
vt 0.000000 0.000000
vt 0.000000 0.000000
vt 0.000000 0.000000
vt 0.370732 0.918897
vt 0.552455 0.864852
vt 0.552455 0.918897
vt 0.628883 0.457512
vt 0.647953 0.404382
vt 0.628883 0.498652
vt 0.647953 0.498652
vt 0.789170 0.601002
vt 0.000000 0.000000
vt 0.167757 0.312840
vt 0.867337 0.515284
vt 0.852486 0.515284
vt 0.977704 0.778037
vt 0.592895 0.823658
vt 0.603743 0.823658
vt 0.000000 0.000000
vt 0.324106 0.530899
vt 0.305335 0.394644
vt 0.038200 0.865787
vt 0.696223 0.498652
vt 0.811101 0.498652
vt 0.267964 0.484722
vt 0.263957 0.436108
vt 0.267964 0.436108
vt 0.152880 0.771466
vt 0.211390 0.771466
vt 0.292264 0.685378
vt 0.000000 0.000000
vt 0.924718 0.610914
vt 0.286825 0.685056
vt 0.098581 0.084572
vt 0.295497 0.311899
vt 0.371463 0.609476
vt 0.650685 0.672682
vt 0.000000 0.000000
vt 0.370732 0.864852
vt 0.370732 0.960184
vt 0.552455 0.960184
vt 0.000000 0.000000
vt 0.650685 0.745170
vt 0.371463 0.574233
vt 0.304131 0.574233
vt 0.261604 0.311899
vt 0.225987 0.054131
vt 0.072626 0.084572
vt 0.286825 0.712045
vt 0.271933 0.712045
vt 0.906857 0.610914
vt 0.000000 0.000000
vt 0.292264 0.666805
vt 0.303082 0.666805
vt 0.220104 0.676186
vt 0.341769 0.530899
vt 0.000000 0.000000
vt 0.592895 0.861434
vt 0.924823 0.747170
vt 0.867337 0.460392
vt 0.098733 0.282563
vt 0.000000 0.000000
vt 0.789170 0.672682
vt 0.628883 0.404382
vt 0.279535 0.849458
vt 0.323365 0.799979
vt 0.323365 0.849458
vt 0.279535 0.799979
vt 0.323365 0.751365
vt 0.263957 0.386630
vt 0.267964 0.386630
vt 0.263955 0.575399
vt 0.267954 0.624013
vt 0.263955 0.624013
vt 0.390457 0.614780
vt 0.386445 0.569105
vt 0.390457 0.569105
vt 0.263955 0.525921
vt 0.267954 0.575399
vt 0.811196 0.229418
vt 0.628883 0.309051
vt 0.370732 0.770582
vt 0.220579 0.596553
vt 0.458477 0.419418
vt 0.371463 0.644327
vt 0.364630 0.054131
vt 0.458477 0.054035
vt 0.286859 0.407596
vt 0.867337 0.404883
vt 0.867531 0.041573
vt 0.286825 0.658368
vt 0.592895 0.899635
vt 0.378401 0.394644
vt 0.872738 0.372691
vt 0.292264 0.703745
vt 0.872947 0.165778
vt 0.386445 0.679640
vt 0.263957 0.484722
vt 0.279535 0.751365
vt 0.386445 0.614780
vt 0.267954 0.525921
vn 0.0000 1.0000 0.0000
vn -1.0000 0.0000 0.0001
vn -0.0001 0.0000 -1.0000
vn 0.0000 -1.0000 0.0000
vn 0.0001 0.0000 1.0000
vn 1.0000 0.0000 -0.0001
vn 0.0000 0.0000 1.0000
vn 0.9897 0.1429 -0.0001
vn 0.0001 0.1429 0.9897
vn -0.0001 0.1429 -0.9897
vn -0.9897 0.1429 0.0001
vn -0.9899 -0.1400 0.0203
vn -0.0000 0.9897 -0.1429
vn 0.9900 -0.1400 0.0201
vn 0.0000 -0.9897 0.1429
vn -0.9900 0.1400 -0.0201
vn -0.0000 0.9897 -0.1428
vn 0.9899 0.1400 -0.0203
vn 0.0000 -0.9897 0.1428
usemtl Material
s off
f 5/1/1 11/2/1 1/3/1
f 3/4/2 51/5/2 53/6/2
f 109/7/3 54/8/3 116/9/3
f 102/10/4 8/11/4 83/12/4
f 47/13/5 44/14/5 50/15/5
f 5/16/6 52/17/6 54/18/6
f 103/19/7 14/20/7 104/21/7
f 3/22/1 10/23/1 7/24/1
f 101/25/1 10/23/1 103/26/1
f 118/27/1 11/2/1 119/28/1
f 16/29/8 19/30/8 15/31/8
f 10/32/7 13/33/7 14/20/7
f 11/34/7 16/35/7 15/36/7
f 119/37/7 15/36/7 120/38/7
f 105/39/1 17/40/1 87/41/1
f 17/42/9 22/43/9 24/44/9
f 104/45/10 18/46/10 105/47/10
f 13/48/11 18/49/11 14/50/11
f 23/51/12 25/52/12 21/53/12
f 120/54/9 21/55/9 122/56/9
f 19/57/9 21/55/9 15/58/9
f 87/59/9 24/44/9 89/60/9
f 28/61/9 30/62/9 32/63/9
f 21/64/13 124/65/13 122/66/13
f 22/67/14 28/68/14 24/69/14
f 24/70/15 91/71/15 89/72/15
f 29/73/7 35/74/7 33/75/7
f 91/76/9 32/63/9 93/77/9
f 27/78/9 29/79/9 25/80/9
f 124/81/9 29/79/9 126/82/9
f 33/83/15 130/84/15 128/85/15
f 126/86/7 33/75/7 128/87/7
f 32/88/7 34/89/7 36/90/7
f 93/91/7 36/90/7 95/92/7
f 130/93/9 39/94/9 131/95/9
f 36/96/16 38/97/16 40/98/16
f 36/99/17 97/100/17 95/101/17
f 35/102/18 37/103/18 33/104/18
f 98/105/5 56/106/5 100/107/5
f 52/108/5 41/109/5 55/110/5
f 110/111/5 42/112/5 114/113/5
f 84/114/5 43/115/5 98/105/5
f 45/116/5 42/112/5 2/117/5
f 99/118/5 44/14/5 106/119/5
f 48/120/6 2/121/6 6/122/6
f 47/13/5 56/106/5 53/123/5
f 115/124/3 6/125/3 117/126/3
f 47/127/2 8/128/2 4/129/2
f 53/123/5 43/115/5 3/130/5
f 45/116/5 55/110/5 49/131/5
f 100/107/5 50/15/5 99/118/5
f 54/18/6 45/132/6 48/120/6
f 116/9/3 48/133/3 115/124/3
f 53/6/2 46/134/2 47/127/2
f 108/135/3 80/136/3 107/137/3
f 99/138/2 140/139/2 100/140/2
f 107/137/3 57/141/3 83/142/3
f 133/143/5 78/144/5 114/113/5
f 58/145/5 132/146/5 118/147/5
f 60/148/5 106/119/5 102/149/5
f 132/146/5 81/150/5 134/151/5
f 74/152/17 131/153/17 129/154/17
f 75/155/9 97/156/9 96/157/9
f 127/158/7 74/159/7 129/160/7
f 92/161/7 73/162/7 94/163/7
f 73/164/15 96/165/15 94/166/15
f 69/167/9 92/168/9 90/169/9
f 70/170/9 127/171/9 125/172/9
f 68/173/15 125/174/15 123/175/15
f 67/176/13 90/177/13 88/178/13
f 65/179/9 123/180/9 121/181/9
f 63/182/9 88/183/9 86/184/9
f 64/185/10 113/186/10 112/187/10
f 113/188/1 65/189/1 121/190/1
f 85/191/7 63/192/7 86/193/7
f 58/194/1 85/195/1 84/196/1
f 59/197/1 111/198/1 109/199/1
f 111/200/7 64/201/7 112/202/7
f 110/203/4 57/204/4 117/205/4
f 101/206/3 82/207/3 108/135/3
f 7/208/3 108/135/3 51/209/3
f 84/196/1 9/210/1 3/22/1
f 9/211/7 86/193/7 13/33/7
f 86/184/9 22/43/9 13/212/9
f 88/178/13 26/213/13 22/214/13
f 90/169/9 30/62/9 26/215/9
f 94/166/15 38/216/15 34/217/15
f 30/218/7 94/163/7 34/89/7
f 96/157/9 40/219/9 38/220/9
f 102/149/5 44/14/5 4/221/5
f 46/222/3 83/142/3 8/223/3
f 51/209/3 107/137/3 46/222/3
f 100/224/1 138/225/1 81/226/1
f 79/227/5 106/119/5 78/144/5
f 58/145/5 98/105/5 77/228/5
f 77/228/5 100/107/5 81/150/5
f 95/101/17 76/229/17 74/152/17
f 72/230/7 95/92/7 74/159/7
f 70/170/9 93/77/9 72/231/9
f 89/72/19 70/232/19 68/173/19
f 65/179/9 89/60/9 68/233/9
f 64/185/10 105/47/10 66/234/10
f 66/235/1 87/41/1 65/189/1
f 59/197/1 103/26/1 62/236/1
f 62/237/7 104/21/7 64/201/7
f 60/238/4 83/12/4 57/204/4
f 2/239/4 117/205/4 6/240/4
f 12/241/7 112/202/7 16/35/7
f 109/199/1 12/242/1 5/1/1
f 20/243/1 121/190/1 19/244/1
f 112/187/10 20/245/10 16/246/10
f 121/181/9 23/247/9 19/57/9
f 123/175/19 27/248/19 23/249/19
f 125/172/9 31/250/9 27/78/9
f 31/251/7 129/160/7 35/74/7
f 129/154/17 39/252/17 35/253/17
f 41/109/5 134/151/5 55/110/5
f 118/147/5 41/109/5 1/254/5
f 49/131/5 114/113/5 42/112/5
f 55/110/5 133/143/5 49/131/5
f 82/207/3 115/124/3 80/136/3
f 80/136/3 117/126/3 57/141/3
f 60/148/5 114/113/5 78/144/5
f 75/155/9 131/95/9 76/255/9
f 71/256/7 128/87/7 73/162/7
f 128/85/15 75/257/15 73/164/15
f 69/167/9 126/82/9 71/258/9
f 122/66/13 69/259/13 67/176/13
f 63/182/9 122/56/9 67/260/9
f 61/261/7 120/38/7 63/192/7
f 58/194/1 119/28/1 61/262/1
f 59/263/3 116/9/3 82/207/3
f 137/264/5 136/265/5 135/266/5
f 138/267/5 139/268/5 136/265/5
f 81/226/1 137/269/1 134/270/1
f 79/271/4 139/272/4 99/273/4
f 134/274/6 135/275/6 133/276/6
f 133/277/4 136/278/4 79/271/4
f 5/1/1 12/242/1 11/2/1
f 3/4/2 7/279/2 51/5/2
f 109/7/3 5/280/3 54/8/3
f 102/10/4 4/281/4 8/11/4
f 47/13/5 4/221/5 44/14/5
f 5/16/6 1/282/6 52/17/6
f 103/19/7 10/32/7 14/20/7
f 3/22/1 9/210/1 10/23/1
f 101/25/1 7/24/1 10/23/1
f 118/27/1 1/3/1 11/2/1
f 16/29/8 20/283/8 19/30/8
f 10/32/7 9/211/7 13/33/7
f 11/34/7 12/241/7 16/35/7
f 119/37/7 11/34/7 15/36/7
f 105/39/1 18/284/1 17/40/1
f 17/42/9 13/212/9 22/43/9
f 104/45/10 14/285/10 18/46/10
f 13/48/11 17/286/11 18/49/11
f 23/51/12 27/287/12 25/52/12
f 120/54/9 15/58/9 21/55/9
f 19/57/9 23/247/9 21/55/9
f 87/59/9 17/42/9 24/44/9
f 28/61/9 26/215/9 30/62/9
f 21/64/17 25/288/17 124/65/17
f 22/67/14 26/289/14 28/68/14
f 24/70/15 28/290/15 91/71/15
f 29/73/7 31/251/7 35/74/7
f 91/76/9 28/61/9 32/63/9
f 27/78/9 31/250/9 29/79/9
f 124/81/9 25/80/9 29/79/9
f 33/83/15 37/291/15 130/84/15
f 126/86/7 29/73/7 33/75/7
f 32/88/7 30/218/7 34/89/7
f 93/91/7 32/88/7 36/90/7
f 130/93/9 37/292/9 39/94/9
f 36/96/16 34/293/16 38/97/16
f 36/99/13 40/294/13 97/100/13
f 35/102/18 39/295/18 37/103/18
f 98/105/5 43/115/5 56/106/5
f 52/108/5 1/254/5 41/109/5
f 110/111/5 2/117/5 42/112/5
f 84/114/5 3/130/5 43/115/5
f 45/116/5 49/131/5 42/112/5
f 99/118/5 50/15/5 44/14/5
f 48/120/6 45/132/6 2/121/6
f 47/13/5 50/15/5 56/106/5
f 115/124/3 48/133/3 6/125/3
f 47/127/2 46/134/2 8/128/2
f 53/123/5 56/106/5 43/115/5
f 45/116/5 52/108/5 55/110/5
f 100/107/5 56/106/5 50/15/5
f 54/18/6 52/17/6 45/132/6
f 116/9/3 54/8/3 48/133/3
f 53/6/2 51/5/2 46/134/2
f 108/135/3 82/207/3 80/136/3
f 99/138/2 139/296/2 140/139/2
f 107/137/3 80/136/3 57/141/3
f 133/143/5 79/227/5 78/144/5
f 58/145/5 77/228/5 132/146/5
f 60/148/5 78/144/5 106/119/5
f 132/146/5 77/228/5 81/150/5
f 74/152/13 76/229/13 131/153/13
f 75/155/9 76/255/9 97/156/9
f 127/158/7 72/230/7 74/159/7
f 92/161/7 71/256/7 73/162/7
f 73/164/15 75/257/15 96/165/15
f 69/167/9 71/258/9 92/168/9
f 70/170/9 72/231/9 127/171/9
f 68/173/15 70/232/15 125/174/15
f 67/176/17 69/259/17 90/177/17
f 65/179/9 68/233/9 123/180/9
f 63/182/9 67/260/9 88/183/9
f 64/185/10 66/234/10 113/186/10
f 113/188/1 66/235/1 65/189/1
f 85/191/7 61/261/7 63/192/7
f 58/194/1 61/262/1 85/195/1
f 59/197/1 62/236/1 111/198/1
f 111/200/7 62/237/7 64/201/7
f 110/203/4 60/238/4 57/204/4
f 101/206/3 59/263/3 82/207/3
f 7/208/3 101/206/3 108/135/3
f 84/196/1 85/195/1 9/210/1
f 9/211/7 85/191/7 86/193/7
f 86/184/9 88/183/9 22/43/9
f 88/178/17 90/177/17 26/213/17
f 90/169/9 92/168/9 30/62/9
f 94/166/15 96/165/15 38/216/15
f 30/218/7 92/161/7 94/163/7
f 96/157/9 97/156/9 40/219/9
f 102/149/5 106/119/5 44/14/5
f 46/222/3 107/137/3 83/142/3
f 51/209/3 108/135/3 107/137/3
f 100/224/1 140/297/1 138/225/1
f 79/227/5 99/118/5 106/119/5
f 58/145/5 84/114/5 98/105/5
f 77/228/5 98/105/5 100/107/5
f 95/101/13 97/100/13 76/229/13
f 72/230/7 93/91/7 95/92/7
f 70/170/9 91/76/9 93/77/9
f 89/72/15 91/71/15 70/232/15
f 65/179/9 87/59/9 89/60/9
f 64/185/10 104/45/10 105/47/10
f 66/235/1 105/39/1 87/41/1
f 59/197/1 101/25/1 103/26/1
f 62/237/7 103/19/7 104/21/7
f 60/238/4 102/10/4 83/12/4
f 2/239/4 110/203/4 117/205/4
f 12/241/7 111/200/7 112/202/7
f 109/199/1 111/198/1 12/242/1
f 20/243/1 113/188/1 121/190/1
f 112/187/10 113/186/10 20/245/10
f 121/181/9 123/180/9 23/247/9
f 123/175/19 125/174/19 27/248/19
f 125/172/9 127/171/9 31/250/9
f 31/251/7 127/158/7 129/160/7
f 129/154/13 131/153/13 39/252/13
f 41/109/5 132/146/5 134/151/5
f 118/147/5 132/146/5 41/109/5
f 49/131/5 133/143/5 114/113/5
f 55/110/5 134/151/5 133/143/5
f 82/207/3 116/9/3 115/124/3
f 80/136/3 115/124/3 117/126/3
f 60/148/5 110/111/5 114/113/5
f 75/155/9 130/93/9 131/95/9
f 71/256/7 126/86/7 128/87/7
f 128/85/15 130/84/15 75/257/15
f 69/167/9 124/81/9 126/82/9
f 122/66/17 124/65/17 69/259/17
f 63/182/9 120/54/9 122/56/9
f 61/261/7 119/37/7 120/38/7
f 58/194/1 118/27/1 119/28/1
f 59/263/3 109/7/3 116/9/3
f 137/264/5 138/267/5 136/265/5
f 138/267/5 140/298/5 139/268/5
f 81/226/1 138/225/1 137/269/1
f 79/271/4 136/278/4 139/272/4
f 134/274/6 137/299/6 135/275/6
f 133/277/4 135/300/4 136/278/4
