# Blender v2.83.1 OBJ File: 'test_model_2_triangled_uv.blend'
# www.blender.org
mtllib test_model_2.mtl
o Cube
v 0.320118 0.640236 0.136716
v 0.320118 0.000000 0.136716
v -0.320118 0.640236 0.136716
v -0.320118 0.000000 0.136716
v 0.320118 0.640236 -0.136716
v 0.320118 0.000000 -0.136716
v -0.320118 0.640236 -0.136716
v -0.320118 0.000000 -0.136716
v -0.274790 1.040252 0.136716
v -0.274790 1.040252 -0.136716
v 0.274790 1.040252 0.136716
v 0.274790 1.040252 -0.136716
v -0.225443 1.127962 0.136716
v -0.225443 1.127962 -0.136716
v 0.225443 1.127962 0.136716
v 0.225443 1.127962 -0.136716
v -0.195907 1.143348 0.136716
v -0.195907 1.143348 -0.136716
v 0.195907 1.143348 0.136716
v 0.195907 1.143348 -0.136716
v 0.246931 0.685963 0.136716
v -0.246931 0.685963 0.136716
v 0.211966 0.994525 0.136716
v -0.211966 0.994525 0.136716
v 0.246931 0.685963 0.165509
v -0.246931 0.685963 0.165509
v 0.211966 0.994525 0.165509
v -0.211966 0.994525 0.165509
v 0.224807 0.699786 0.165509
v -0.224807 0.699786 0.165509
v 0.192975 0.980702 0.165509
v -0.192975 0.980702 0.165509
v 0.224807 0.699786 0.147815
v -0.224807 0.699786 0.147815
v 0.192975 0.980702 0.147815
v -0.192975 0.980702 0.147815
v 0.186571 0.723676 0.147815
v -0.186571 0.723676 0.147815
v 0.160153 0.956812 0.147815
v -0.160153 0.956812 0.147815
v 0.186571 0.723676 0.174436
v -0.186571 0.723676 0.174436
v 0.160153 0.956812 0.174436
v -0.160153 0.956812 0.174436
v 0.255403 0.575521 0.136716
v 0.255403 0.064715 0.136716
v -0.255403 0.575521 0.136716
v -0.255403 0.064715 0.136716
v 0.226159 0.546277 0.101144
v 0.226159 0.093959 0.101144
v -0.226159 0.546277 0.101144
v -0.226159 0.093959 0.101144
v 0.196971 0.517090 0.101144
v 0.196971 0.123147 0.101144
v -0.196971 0.517090 0.101144
v -0.196971 0.123147 0.101144
v 0.196971 0.517090 0.137982
v 0.196971 0.123147 0.137982
v -0.196971 0.517090 0.137982
v -0.196971 0.123147 0.137982
vt 0.032127 0.259726
vt 0.280898 0.097471
vt 0.299853 0.259726
vt 0.819463 0.254180
vt 0.933803 0.513690
vt 0.819463 0.513690
vt 0.299853 0.519422
vt 0.032127 0.519422
vt 0.792021 0.599892
vt 0.677681 0.859587
vt 0.677681 0.599892
vt 0.631833 0.315347
vt 0.604772 0.081902
vt 0.631833 0.055652
vt 0.677681 0.254180
vt 0.792021 0.513690
vt 0.677681 0.513690
vt 0.612879 0.477603
vt 0.403698 0.513181
vt 0.383062 0.477603
vt 0.586608 0.459055
vt 0.792021 0.091346
vt 0.792021 0.254180
vt 0.933803 0.091346
vt 0.933803 0.254180
vt 0.071717 0.061893
vt 0.247912 0.055652
vt 0.260263 0.061893
vt 0.051082 0.097471
vt 0.819463 0.091346
vt 0.933803 0.055038
vt 0.677681 0.091346
vt 0.792021 0.055038
vt 0.248260 0.966073
vt 0.362600 0.807144
vt 0.362600 0.966073
vt 0.362600 0.795164
vt 0.248260 0.807144
vt 0.248260 0.795164
vt 0.248260 0.978053
vt 0.362600 0.978053
vt 0.592243 0.513181
vt 0.416048 0.519422
vt 0.392696 0.788289
vt 0.404736 0.913895
vt 0.392696 0.913895
vt 0.394712 0.333895
vt 0.364107 0.315347
vt 0.601229 0.333895
vt 0.409333 0.459055
vt 0.454293 0.785252
vt 0.577543 0.790461
vt 0.583324 0.799434
vt 0.971951 0.592767
vt 0.983991 0.793089
vt 0.971951 0.793089
vt 0.389806 0.913895
vt 0.377766 0.788289
vt 0.389806 0.788289
vt 0.986515 0.020635
vt 0.998555 0.192592
vt 0.986515 0.192592
vt 0.655030 0.814823
vt 0.662428 0.928201
vt 0.655030 0.928201
vt 0.577543 0.608086
vt 0.583324 0.599113
vt 0.454293 0.613295
vt 0.460074 0.620998
vt 0.460074 0.777549
vt 0.819838 0.760076
vt 0.927318 0.757478
vt 0.937308 0.772987
vt 0.986324 0.587514
vt 0.993723 0.744065
vt 0.986324 0.744065
vt 0.941321 0.808478
vt 0.948720 0.921856
vt 0.941321 0.921856
vt 0.662428 0.779333
vt 0.655030 0.596959
vt 0.662428 0.596959
vt 0.952741 0.785034
vt 0.963873 0.936389
vt 0.952741 0.936389
vt 0.927318 0.606123
vt 0.937308 0.590613
vt 0.819838 0.603525
vt 0.829828 0.616838
vt 0.829828 0.746762
vt 0.914931 0.964390
vt 0.817441 0.823751
vt 0.914931 0.813035
vt 0.939098 0.901163
vt 0.927965 0.806261
vt 0.939098 0.806261
vt 0.407517 0.788808
vt 0.418649 0.918731
vt 0.407517 0.918731
vt 0.421321 0.784605
vt 0.432453 0.879508
vt 0.421321 0.879508
vt 0.615467 0.807133
vt 0.600592 0.611799
vt 0.615467 0.599937
vt 0.391169 0.081902
vt 0.364107 0.055652
vt 0.604772 0.289097
vt 0.391169 0.289097
vt 0.211842 0.780561
vt 0.199637 0.608930
vt 0.211842 0.597090
vt 0.949309 0.024846
vt 0.964184 0.220487
vt 0.949309 0.231893
vt 0.633912 0.807133
vt 0.619037 0.611799
vt 0.633912 0.599937
vt 0.637482 0.599920
vt 0.652357 0.794666
vt 0.637482 0.806967
vt 0.983221 0.178840
vt 0.967817 0.019161
vt 0.983221 0.019161
vt 0.034903 0.608930
vt 0.022697 0.597090
vt 0.034903 0.768722
vt 0.022697 0.780561
vt 0.199637 0.768722
vt 0.254308 0.754042
vt 0.419042 0.594249
vt 0.419042 0.754042
vt 0.953253 0.587903
vt 0.968658 0.747696
vt 0.953253 0.747696
vt 0.968474 0.275900
vt 0.983878 0.435579
vt 0.968474 0.435579
vt 0.949372 0.275914
vt 0.964777 0.435707
vt 0.949372 0.435707
vt 0.792021 0.859587
vt 0.084068 0.055652
vt 0.819463 0.055038
vt 0.677681 0.055038
vt 0.579892 0.519422
vt 0.404736 0.788289
vt 0.983991 0.592767
vt 0.377766 0.913895
vt 0.998555 0.020635
vt 0.662428 0.814823
vt 0.993723 0.587514
vt 0.948720 0.808478
vt 0.655030 0.779333
vt 0.963873 0.785034
vt 0.817441 0.953674
vt 0.927965 0.901163
vt 0.418649 0.788808
vt 0.432453 0.784605
vt 0.600592 0.795270
vt 0.964184 0.037147
vt 0.619037 0.795270
vt 0.652357 0.611326
vt 0.967817 0.178840
vt 0.254308 0.594249
vt 0.968658 0.587903
vt 0.983878 0.275900
vt 0.964777 0.275914
vn 0.0000 -0.0000 -1.0000
vn -0.9984 0.0564 0.0000
vn -1.0000 0.0000 0.0000
vn 0.0000 -1.0000 0.0000
vn 0.0000 -0.0000 1.0000
vn 0.9984 0.0564 0.0000
vn 1.0000 0.0000 0.0000
vn 0.9515 0.3076 0.0000
vn -0.9515 0.3076 0.0000
vn -0.6956 0.7184 0.0000
vn 0.6956 0.7184 0.0000
vn 0.2378 0.9713 0.0000
vn -0.2378 0.9713 0.0000
vn 0.9936 0.1126 0.0000
vn -0.9936 0.1126 0.0000
vn 0.0000 1.0000 0.0000
vn 0.9936 -0.1126 0.0000
vn -0.9936 -0.1126 0.0000
vn -0.0000 -0.7725 0.6351
vn -0.7725 0.0000 0.6351
vn -0.0000 0.7725 0.6351
vn 0.7725 0.0000 0.6351
usemtl Material
s 1
f 7/1/1 12/2/1 5/3/1
f 3/4/2 8/5/3 4/6/3
f 7/1/1 6/7/1 8/8/1
f 2/9/4 8/10/4 6/11/4
f 1/12/5 46/13/5 2/14/5
f 5/15/6 2/16/7 6/17/7
f 11/18/5 13/19/5 9/20/5
f 9/20/5 23/21/5 11/18/5
f 5/15/6 11/22/8 1/23/6
f 3/4/2 10/24/9 7/25/2
f 14/26/1 20/27/1 16/28/1
f 10/29/1 16/28/1 12/2/1
f 9/30/9 14/31/10 10/24/9
f 12/32/8 15/33/11 11/22/8
f 20/34/12 17/35/13 19/36/12
f 13/37/10 18/38/13 14/39/10
f 16/40/11 19/36/12 15/41/11
f 15/42/5 17/43/5 13/19/5
f 23/44/14 25/45/14 21/46/14
f 1/12/5 22/47/5 3/48/5
f 11/18/5 21/49/5 1/12/5
f 9/20/5 22/47/5 24/50/5
f 27/51/5 29/52/5 25/53/5
f 21/54/4 26/55/4 22/56/4
f 22/57/15 28/58/15 24/59/15
f 24/60/16 27/61/16 23/62/16
f 30/63/17 36/64/17 32/65/17
f 25/53/5 30/66/5 26/67/5
f 28/68/5 30/66/5 32/69/5
f 28/68/5 31/70/5 27/51/5
f 35/71/5 37/72/5 33/73/5
f 32/74/4 35/75/4 31/76/4
f 31/77/18 33/78/18 29/79/18
f 29/80/16 34/81/16 30/82/16
f 37/83/4 42/84/4 38/85/4
f 33/73/5 38/86/5 34/87/5
f 36/88/5 38/86/5 40/89/5
f 36/88/5 39/90/5 35/71/5
f 41/91/5 44/92/5 42/93/5
f 38/94/15 44/95/15 40/96/15
f 40/97/16 43/98/16 39/99/16
f 39/100/14 41/101/14 37/102/14
f 47/103/19 49/104/19 45/105/19
f 2/14/5 48/106/5 4/107/5
f 3/48/5 45/108/5 1/12/5
f 4/107/5 47/109/5 3/48/5
f 50/110/5 56/111/5 52/112/5
f 45/113/20 50/114/20 46/115/20
f 46/116/21 52/117/21 48/118/21
f 48/119/22 51/120/22 47/121/22
f 56/122/3 59/123/3 55/124/3
f 52/112/5 55/125/5 51/126/5
f 51/126/5 53/127/5 49/128/5
f 49/128/5 54/129/5 50/110/5
f 57/130/5 60/131/5 58/132/5
f 55/133/16 57/134/16 53/135/16
f 53/136/7 58/137/7 54/138/7
f 54/139/4 60/140/4 56/141/4
f 7/1/1 10/29/1 12/2/1
f 3/4/2 7/25/2 8/5/3
f 7/1/1 5/3/1 6/7/1
f 2/9/4 4/142/4 8/10/4
f 1/12/5 45/108/5 46/13/5
f 5/15/6 1/23/6 2/16/7
f 11/18/5 15/42/5 13/19/5
f 9/20/5 24/50/5 23/21/5
f 5/15/6 12/32/8 11/22/8
f 3/4/2 9/30/9 10/24/9
f 14/26/1 18/143/1 20/27/1
f 10/29/1 14/26/1 16/28/1
f 9/30/9 13/144/10 14/31/10
f 12/32/8 16/145/11 15/33/11
f 20/34/12 18/38/13 17/35/13
f 13/37/10 17/35/13 18/38/13
f 16/40/11 20/34/12 19/36/12
f 15/42/5 19/146/5 17/43/5
f 23/44/14 27/147/14 25/45/14
f 1/12/5 21/49/5 22/47/5
f 11/18/5 23/21/5 21/49/5
f 9/20/5 3/48/5 22/47/5
f 27/51/5 31/70/5 29/52/5
f 21/54/4 25/148/4 26/55/4
f 22/57/15 26/149/15 28/58/15
f 24/60/16 28/150/16 27/61/16
f 30/63/17 34/151/17 36/64/17
f 25/53/5 29/52/5 30/66/5
f 28/68/5 26/67/5 30/66/5
f 28/68/5 32/69/5 31/70/5
f 35/71/5 39/90/5 37/72/5
f 32/74/4 36/152/4 35/75/4
f 31/77/18 35/153/18 33/78/18
f 29/80/16 33/154/16 34/81/16
f 37/83/4 41/155/4 42/84/4
f 33/73/5 37/72/5 38/86/5
f 36/88/5 34/87/5 38/86/5
f 36/88/5 40/89/5 39/90/5
f 41/91/5 43/156/5 44/92/5
f 38/94/15 42/157/15 44/95/15
f 40/97/16 44/158/16 43/98/16
f 39/100/14 43/159/14 41/101/14
f 47/103/19 51/160/19 49/104/19
f 2/14/5 46/13/5 48/106/5
f 3/48/5 47/109/5 45/108/5
f 4/107/5 48/106/5 47/109/5
f 50/110/5 54/129/5 56/111/5
f 45/113/20 49/161/20 50/114/20
f 46/116/21 50/162/21 52/117/21
f 48/119/22 52/163/22 51/120/22
f 56/122/3 60/164/3 59/123/3
f 52/112/5 56/111/5 55/125/5
f 51/126/5 55/125/5 53/127/5
f 49/128/5 53/127/5 54/129/5
f 57/130/5 59/165/5 60/131/5
f 55/133/16 59/166/16 57/134/16
f 53/136/7 57/167/7 58/137/7
f 54/139/4 58/168/4 60/140/4
